<?xml version="1.0" encoding="UTF-8" standalone="no"?>
<!-- Created with Inkscape (http://www.inkscape.org/) -->

<svg
   xmlns:ns0="http://www.iki.fi/pav/software/textext/"
   xmlns:dc="http://purl.org/dc/elements/1.1/"
   xmlns:cc="http://creativecommons.org/ns#"
   xmlns:rdf="http://www.w3.org/1999/02/22-rdf-syntax-ns#"
   xmlns:svg="http://www.w3.org/2000/svg"
   xmlns="http://www.w3.org/2000/svg"
   xmlns:xlink="http://www.w3.org/1999/xlink"
   xmlns:sodipodi="http://sodipodi.sourceforge.net/DTD/sodipodi-0.dtd"
   xmlns:inkscape="http://www.inkscape.org/namespaces/inkscape"
   sodipodi:docname="pendulum.svg"
   xml:space="preserve"
   height="131.81"
   width="467.71652"
   inkscape:version="0.48.4 r9939"
   version="1.1"
   id="svg2"><sodipodi:namedview
     pagecolor="#ffffff"
     bordercolor="#666666"
     borderopacity="1"
     objecttolerance="10"
     gridtolerance="10"
     guidetolerance="10"
     inkscape:pageopacity="0"
     inkscape:pageshadow="2"
     inkscape:window-width="1855"
     inkscape:window-height="1056"
     id="namedview4"
     showgrid="false"
     inkscape:zoom="2.9761615"
     inkscape:cx="235.31199"
     inkscape:cy="106.7362"
     inkscape:window-x="65"
     inkscape:window-y="24"
     inkscape:window-maximized="1"
     inkscape:current-layer="g10"><inkscape:grid
       id="grid6030"
       type="xygrid" /></sodipodi:namedview><metadata
     id="metadata8"><rdf:RDF><cc:Work
         rdf:about=""><dc:format>image/svg+xml</dc:format><dc:type
           rdf:resource="http://purl.org/dc/dcmitype/StillImage" /><dc:title /></cc:Work></rdf:RDF></metadata><defs
     id="defs6"><marker
       style="overflow:visible;"
       id="Arrow2Mend"
       refX="0.0"
       refY="0.0"
       orient="auto"
       inkscape:stockid="Arrow2Mend"><path
         transform="scale(0.6) rotate(180) translate(0,0)"
         d="M 8.7185878,4.0337352 L -2.2072895,0.016013256 L 8.7185884,-4.0017078 C 6.9730900,-1.6296469 6.9831476,1.6157441 8.7185878,4.0337352 z "
         style="fill-rule:evenodd;stroke-width:0.62500000;stroke-linejoin:round;"
         id="path4096" /></marker><marker
       style="overflow:visible"
       id="Arrow2Lend"
       refX="0"
       refY="0"
       orient="auto"
       inkscape:stockid="Arrow2Lend"><path
         inkscape:connector-curvature="0"
         transform="matrix(-1.1,0,0,-1.1,-1.1,0)"
         d="M 8.7185878,4.0337352 -2.2072895,0.01601326 8.7185884,-4.0017078 c -1.7454984,2.3720609 -1.7354408,5.6174519 -6e-7,8.035443 z"
         style="fill-rule:evenodd;stroke-width:0.625;stroke-linejoin:round"
         id="path4407" /></marker><linearGradient
       inkscape:collect="always"
       id="linearGradient4108"><stop
         style="stop-color:#666666;stop-opacity:1"
         offset="0"
         id="stop4110" /><stop
         style="stop-color:#cccccc;stop-opacity:1"
         offset="1"
         id="stop4112" /></linearGradient><linearGradient
       inkscape:collect="always"
       id="linearGradient3944"><stop
         style="stop-color:#808080;stop-opacity:1"
         offset="0"
         id="stop3946" /><stop
         style="stop-color:#ffffff;stop-opacity:1"
         offset="1"
         id="stop3948" /></linearGradient><radialGradient
       fx="169.90625"
       fy="70.917969"
       cx="169.90625"
       cy="70.917969"
       r="29.179688"
       gradientUnits="userSpaceOnUse"
       gradientTransform="matrix(0.587184,-0.658809,-0.725239,-0.646392,248.53524,278.52105)"
       spreadMethod="pad"
       id="radialGradient24"><stop
         style="stop-opacity:1;stop-color:#cccccc"
         offset="0"
         id="stop26" /><stop
         style="stop-opacity:1;stop-color:#000000"
         offset="1"
         id="stop28" /></radialGradient><radialGradient
       fx="169.90625"
       fy="70.917969"
       cx="169.90625"
       cy="70.917969"
       r="29.179688"
       gradientUnits="userSpaceOnUse"
       gradientTransform="matrix(0.816625,-0.916238,-1.008626,-0.898969,23.123795,369.4227)"
       spreadMethod="pad"
       id="radialGradient38"><stop
         style="stop-opacity:1;stop-color:#cccccc"
         offset="0"
         id="stop40" /><stop
         style="stop-opacity:1;stop-color:#000000"
         offset="1"
         id="stop42" /></radialGradient><linearGradient
       inkscape:collect="always"
       xlink:href="#linearGradient3944"
       id="linearGradient4088"
       gradientUnits="userSpaceOnUse"
       gradientTransform="matrix(0.80159099,0,0,0.80159099,-1.5014462,-270.68216)"
       x1="236.5463"
       y1="43.071468"
       x2="236.5463"
       y2="63.276413" /><radialGradient
       inkscape:collect="always"
       xlink:href="#radialGradient24"
       id="radialGradient4096"
       gradientUnits="userSpaceOnUse"
       gradientTransform="matrix(0.587184,-0.658809,-0.725239,-0.646392,248.53524,278.52105)"
       spreadMethod="pad"
       cx="169.90625"
       cy="70.917969"
       fx="169.90625"
       fy="70.917969"
       r="29.179688" /><linearGradient
       inkscape:collect="always"
       xlink:href="#linearGradient4108"
       id="linearGradient4114"
       x1="175.89032"
       y1="13.667271"
       x2="219.89166"
       y2="41.303539"
       gradientUnits="userSpaceOnUse"
       gradientTransform="matrix(0.8,0,0,0.8,13.372251,-234.7731)" /><radialGradient
       inkscape:collect="always"
       xlink:href="#radialGradient24-0"
       id="radialGradient4096-0"
       gradientUnits="userSpaceOnUse"
       gradientTransform="matrix(0.587184,-0.658809,-0.725239,-0.646392,248.53524,278.52105)"
       spreadMethod="pad"
       cx="169.90625"
       cy="70.917969"
       fx="169.90625"
       fy="70.917969"
       r="29.179688" /><radialGradient
       fx="169.90625"
       fy="70.917969"
       cx="169.90625"
       cy="70.917969"
       r="29.179688"
       gradientUnits="userSpaceOnUse"
       gradientTransform="matrix(0.587184,-0.658809,-0.725239,-0.646392,248.53524,278.52105)"
       spreadMethod="pad"
       id="radialGradient24-0"><stop
         style="stop-opacity:1;stop-color:#cccccc"
         offset="0"
         id="stop26-1" /><stop
         style="stop-opacity:1;stop-color:#000000"
         offset="1"
         id="stop28-7" /></radialGradient><linearGradient
       inkscape:collect="always"
       xlink:href="#linearGradient4108"
       id="linearGradient4196"
       gradientUnits="userSpaceOnUse"
       gradientTransform="matrix(0.8,0,0,0.8,13.372251,-234.7731)"
       x1="175.89032"
       y1="13.667271"
       x2="219.89166"
       y2="41.303539" /><radialGradient
       inkscape:collect="always"
       xlink:href="#radialGradient24-0"
       id="radialGradient4198"
       gradientUnits="userSpaceOnUse"
       gradientTransform="matrix(0.587184,-0.658809,-0.725239,-0.646392,248.53524,278.52105)"
       spreadMethod="pad"
       cx="169.90625"
       cy="70.917969"
       fx="169.90625"
       fy="70.917969"
       r="29.179688" /><linearGradient
       inkscape:collect="always"
       xlink:href="#linearGradient3944"
       id="linearGradient4221"
       gradientUnits="userSpaceOnUse"
       gradientTransform="matrix(0.93580802,0,0,0.93580802,-119.32192,-224.72222)"
       x1="236.5463"
       y1="43.071468"
       x2="236.5463"
       y2="63.276413" /><radialGradient
       inkscape:collect="always"
       xlink:href="#radialGradient24-0"
       id="radialGradient4259"
       gradientUnits="userSpaceOnUse"
       gradientTransform="matrix(0.587184,-0.658809,-0.725239,-0.646392,248.53524,278.52105)"
       spreadMethod="pad"
       cx="169.90625"
       cy="70.917969"
       fx="169.90625"
       fy="70.917969"
       r="29.179688" /><linearGradient
       y2="41.303539"
       x2="219.89166"
       y1="13.667271"
       x1="175.89032"
       gradientTransform="matrix(0.8,0,0,0.8,-100.85604,-217.82703)"
       gradientUnits="userSpaceOnUse"
       id="linearGradient3114"
       xlink:href="#linearGradient4108"
       inkscape:collect="always" /><radialGradient
       r="29.179688"
       fy="70.917969"
       fx="169.90625"
       cy="70.917969"
       cx="169.90625"
       spreadMethod="pad"
       gradientTransform="matrix(0.587184,-0.658809,-0.725239,-0.646392,248.53524,278.52105)"
       gradientUnits="userSpaceOnUse"
       id="radialGradient3235"
       xlink:href="#radialGradient24-0"
       inkscape:collect="always" /><marker
       style="overflow:visible"
       id="Arrow2Lend-0"
       refX="0"
       refY="0"
       orient="auto"
       inkscape:stockid="Arrow2Lend"><path
         inkscape:connector-curvature="0"
         transform="matrix(-1.1,0,0,-1.1,-1.1,0)"
         d="M 8.7185878,4.0337352 -2.2072895,0.01601326 8.7185884,-4.0017078 c -1.7454984,2.3720609 -1.7354408,5.6174519 -6e-7,8.035443 z"
         style="fill-rule:evenodd;stroke-width:0.625;stroke-linejoin:round"
         id="path4407-9" /></marker><marker
       style="overflow:visible"
       id="Arrow2Mend-3"
       refX="0"
       refY="0"
       orient="auto"
       inkscape:stockid="Arrow2Mend"><path
         inkscape:connector-curvature="0"
         transform="scale(-0.6,-0.6)"
         d="M 8.7185878,4.0337352 -2.2072895,0.01601326 8.7185884,-4.0017078 c -1.7454984,2.3720609 -1.7354408,5.6174519 -6e-7,8.035443 z"
         style="fill-rule:evenodd;stroke-width:0.625;stroke-linejoin:round"
         id="path4096-3" /></marker><radialGradient
       r="29.179688"
       fy="70.917969"
       fx="169.90625"
       cy="70.917969"
       cx="169.90625"
       spreadMethod="pad"
       gradientTransform="matrix(0.587184,-0.658809,-0.725239,-0.646392,248.53524,278.52105)"
       gradientUnits="userSpaceOnUse"
       id="radialGradient5942"
       xlink:href="#radialGradient24-0"
       inkscape:collect="always" /><linearGradient
       y2="41.303539"
       x2="219.89166"
       y1="13.667271"
       x1="175.89032"
       gradientTransform="matrix(0.8,0,0,0.8,121.94853,-65.433136)"
       gradientUnits="userSpaceOnUse"
       id="linearGradient5944"
       xlink:href="#linearGradient4108"
       inkscape:collect="always" /><linearGradient
       y2="63.276413"
       x2="236.5463"
       y1="43.071468"
       x1="236.5463"
       gradientTransform="matrix(0.51365979,0,0,0.93580802,153.38776,-72.328326)"
       gradientUnits="userSpaceOnUse"
       id="linearGradient5946"
       xlink:href="#linearGradient3944"
       inkscape:collect="always" /><linearGradient
       y2="63.276413"
       x2="236.5463"
       y1="43.071468"
       x1="236.5463"
       gradientTransform="matrix(0.51365979,0,0,0.93580802,136.28127,-108.06189)"
       gradientUnits="userSpaceOnUse"
       id="linearGradient5946-9"
       xlink:href="#linearGradient3944-9"
       inkscape:collect="always" /><linearGradient
       inkscape:collect="always"
       id="linearGradient3944-9"><stop
         style="stop-color:#808080;stop-opacity:1"
         offset="0"
         id="stop3946-7" /><stop
         style="stop-color:#ffffff;stop-opacity:1"
         offset="1"
         id="stop3948-5" /></linearGradient><linearGradient
       inkscape:collect="always"
       xlink:href="#linearGradient3944-9"
       id="linearGradient5964"
       gradientUnits="userSpaceOnUse"
       gradientTransform="matrix(0.12359884,0,0,0.59734644,-77.237526,-260.15879)"
       x1="236.5463"
       y1="43.071468"
       x2="236.5463"
       y2="63.276413" /><marker
       style="overflow:visible"
       id="Arrow2Mend-7"
       refX="0"
       refY="0"
       orient="auto"
       inkscape:stockid="Arrow2Mend"><path
         transform="scale(-0.6,-0.6)"
         d="M 8.7185878,4.0337352 -2.2072895,0.01601326 8.7185884,-4.0017078 c -1.7454984,2.3720609 -1.7354408,5.6174519 -6e-7,8.035443 z"
         style="fill-rule:evenodd;stroke-width:0.625;stroke-linejoin:round"
         id="path4096-8"
         inkscape:connector-curvature="0" /></marker></defs><g
     id="g10"
     inkscape:groupmode="layer"
     inkscape:label="1-1"
     transform="matrix(1.25,0,0,-1.25,0,131.81)"><rect
       style="fill:url(#linearGradient5944);fill-opacity:1;stroke:#000000;stroke-width:0.80000001;stroke-linecap:round;stroke-linejoin:round;stroke-opacity:1"
       id="rect4098"
       width="35.543491"
       height="22.618586"
       x="262.79196"
       y="-54.653297"
       transform="scale(1,-1)" /><g
       ns0:text="$M$"
       ns0:preamble=""
       transform="matrix(1,0,0,-1,74.236825,191.83009)"
       id="g3233"><defs
         id="defs3235"><g
           id="g3237"><symbol
             overflow="visible"
             id="textext-219d0486-0"
             style="overflow:visible"><path
               style="stroke:none"
               d="M 9.234375,-6.046875 C 9.328125,-6.40625 9.34375,-6.5 10.09375,-6.5 c 0.21875,0 0.3125,0 0.3125,-0.203125 0,-0.109375 -0.09375,-0.109375 -0.265625,-0.109375 l -1.3125,0 c -0.265625,0 -0.28125,0 -0.390625,0.1875 L 4.796875,-0.9375 4.015625,-6.578125 C 3.984375,-6.8125 3.96875,-6.8125 3.703125,-6.8125 l -1.359375,0 c -0.1875,0 -0.296875,0 -0.296875,0.1875 0,0.125 0.09375,0.125 0.28125,0.125 0.140625,0 0.3125,0.015625 0.4375,0.015625 0.15625,0.03125 0.21875,0.046875 0.21875,0.171875 0,0.03125 -0.015625,0.0625 -0.046875,0.1875 l -1.265625,5.0625 c -0.09375,0.40625 -0.265625,0.71875 -1.078125,0.75 -0.046875,0 -0.171875,0.015625 -0.171875,0.1875 0,0.09375 0.0625,0.125 0.140625,0.125 0.3125,0 0.65625,-0.03125 1,-0.03125 C 1.890625,-0.03125 2.25,0 2.578125,0 c 0.046875,0 0.1875,0 0.1875,-0.203125 0,-0.109375 -0.109375,-0.109375 -0.1875,-0.109375 -0.5625,0 -0.671875,-0.203125 -0.671875,-0.4375 0,-0.0625 0,-0.125 0.03125,-0.234375 l 1.359375,-5.421875 0.015625,0 0.859375,6.171875 C 4.1875,-0.109375 4.203125,0 4.3125,0 4.421875,0 4.484375,-0.109375 4.53125,-0.171875 l 4.03125,-6.3125 0.015625,0 -1.4375,5.703125 c -0.09375,0.390625 -0.109375,0.46875 -0.90625,0.46875 -0.15625,0 -0.265625,0 -0.265625,0.1875 C 5.96875,0 6.078125,0 6.109375,0 6.390625,0 7.0625,-0.03125 7.34375,-0.03125 7.75,-0.03125 8.1875,0 8.59375,0 8.65625,0 8.78125,0 8.78125,-0.203125 8.78125,-0.3125 8.6875,-0.3125 8.5,-0.3125 c -0.359375,0 -0.640625,0 -0.640625,-0.171875 0,-0.046875 0,-0.0625 0.046875,-0.25 z m 0,0"
               id="path3240"
               inkscape:connector-curvature="0" /></symbol></g></defs><g
         id="textext-219d0486-1"><g
           style="fill:#000000;fill-opacity:1"
           id="g3243"><use
             xlink:href="#textext-219d0486-0"
             x="223.43201"
             y="134.765"
             id="use3245"
             width="744.09448"
             height="1052.3622" /></g></g></g><g
       id="g3324"
       transform="matrix(1,0,0,-1,-89.551385,166.63832)"
       ns0:preamble=""
       ns0:text="$m$"><defs
         id="defs3326"><g
           id="g3328"><symbol
             id="textext-8ec26fc6-0"
             overflow="visible"
             style="overflow:visible"><path
               id="path3331"
               d="m 0.875,-0.59375 c -0.03125,0.15625 -0.09375,0.390625 -0.09375,0.4375 0,0.171875 0.140625,0.265625 0.296875,0.265625 0.125,0 0.296875,-0.078125 0.375,-0.28125 0,-0.015625 0.125,-0.484375 0.1875,-0.734375 l 0.21875,-0.890625 C 1.90625,-2.03125 1.96875,-2.25 2.03125,-2.46875 c 0.03125,-0.171875 0.109375,-0.46875 0.125,-0.5 0.140625,-0.3125 0.671875,-1.21875 1.625,-1.21875 0.453125,0 0.53125,0.375 0.53125,0.703125 0,0.25 -0.0625,0.53125 -0.140625,0.828125 L 3.890625,-1.5 3.6875,-0.75 c -0.03125,0.203125 -0.125,0.546875 -0.125,0.59375 0,0.171875 0.140625,0.265625 0.28125,0.265625 0.3125,0 0.375,-0.25 0.453125,-0.5625 0.140625,-0.5625 0.515625,-2.015625 0.59375,-2.40625 0.03125,-0.125 0.5625,-1.328125 1.65625,-1.328125 0.421875,0 0.53125,0.34375 0.53125,0.703125 0,0.5625 -0.421875,1.703125 -0.625,2.234375 -0.078125,0.234375 -0.125,0.34375 -0.125,0.546875 0,0.46875 0.34375,0.8125 0.8125,0.8125 0.9375,0 1.3125,-1.453125 1.3125,-1.53125 0,-0.109375 -0.09375,-0.109375 -0.125,-0.109375 -0.09375,0 -0.09375,0.03125 -0.140625,0.1875 -0.15625,0.53125 -0.46875,1.234375 -1.015625,1.234375 -0.171875,0 -0.25,-0.09375 -0.25,-0.328125 0,-0.25 0.09375,-0.484375 0.1875,-0.703125 0.1875,-0.53125 0.609375,-1.625 0.609375,-2.203125 0,-0.640625 -0.40625,-1.0625 -1.15625,-1.0625 -0.734375,0 -1.25,0.4375 -1.625,0.96875 0,-0.125 -0.03125,-0.46875 -0.3125,-0.703125 -0.25,-0.21875 -0.5625,-0.265625 -0.8125,-0.265625 -0.90625,0 -1.390625,0.640625 -1.5625,0.875 -0.046875,-0.578125 -0.46875,-0.875 -0.921875,-0.875 -0.453125,0 -0.640625,0.390625 -0.734375,0.5625 -0.171875,0.359375 -0.296875,0.9375 -0.296875,0.96875 0,0.109375 0.09375,0.109375 0.109375,0.109375 0.109375,0 0.109375,-0.015625 0.171875,-0.234375 0.171875,-0.703125 0.375,-1.1875 0.734375,-1.1875 0.15625,0 0.296875,0.078125 0.296875,0.453125 0,0.21875 -0.03125,0.328125 -0.15625,0.84375 z m 0,0"
               style="stroke:none"
               inkscape:connector-curvature="0" /></symbol></g></defs><g
         id="textext-8ec26fc6-1"><g
           id="g3334"
           style="fill:#000000;fill-opacity:1"><use
             id="use3336"
             y="134.765"
             x="223.43201"
             xlink:href="#textext-8ec26fc6-0"
             width="744.09448"
             height="1052.3622" /></g></g></g><g
       transform="matrix(1,0,0,-1,-125.09076,188.25146)"
       ns0:text="$\\theta$"
       ns0:preamble=""
       id="g3410"><defs
         id="defs3412"><g
           id="g3414"><symbol
             style="overflow:visible"
             overflow="visible"
             id="textext-14d31181-0"><path
               inkscape:connector-curvature="0"
               style="stroke:none"
               d="m 4.53125,-4.984375 c 0,-0.65625 -0.171875,-2.046875 -1.1875,-2.046875 -1.390625,0 -2.921875,2.8125 -2.921875,5.09375 0,0.9375 0.28125,2.046875 1.1875,2.046875 1.40625,0 2.921875,-2.859375 2.921875,-5.09375 z M 1.46875,-3.625 C 1.640625,-4.25 1.84375,-5.046875 2.25,-5.765625 2.515625,-6.25 2.875,-6.8125 3.328125,-6.8125 c 0.484375,0 0.546875,0.640625 0.546875,1.203125 0,0.5 -0.078125,1 -0.3125,1.984375 z m 2,0.328125 C 3.359375,-2.84375 3.15625,-2 2.765625,-1.28125 c -0.34375,0.6875 -0.71875,1.171875 -1.15625,1.171875 -0.328125,0 -0.53125,-0.296875 -0.53125,-1.21875 0,-0.421875 0.0625,-1 0.3125,-1.96875 z m 0,0"
               id="path3417" /></symbol></g></defs><g
         id="textext-14d31181-1"><g
           style="fill:#000000;fill-opacity:1"
           id="g3420"><use
             height="1052.3622"
             width="744.09448"
             xlink:href="#textext-14d31181-0"
             x="223.43201"
             y="134.765"
             id="use3422" /></g></g></g><path
       inkscape:connector-curvature="0"
       id="path3606"
       d="m 89.654825,100.28793 0,-86.493711"
       style="fill:none;stroke:#464646;stroke-width:0.40000001;stroke-linecap:round;stroke-linejoin:miter;stroke-miterlimit:4;stroke-opacity:1;stroke-dasharray:2.39999997, 2.39999997;stroke-dashoffset:3.99999995" /><path
       sodipodi:open="true"
       sodipodi:end="1.5707963"
       sodipodi:start="1.0594149"
       transform="matrix(0.62940941,0,0,-0.62940941,-47.8375,117.32577)"
       d="m 247.18523,76.96344 c -8.6884,4.875698 -18.48414,7.436428 -28.4471,7.436428"
       sodipodi:ry="58.128563"
       sodipodi:rx="58.128563"
       sodipodi:cy="26.271305"
       sodipodi:cx="218.73813"
       id="path4378"
       style="fill:none;stroke:#464646;stroke-width:1;stroke-linecap:round;stroke-miterlimit:4;stroke-opacity:1;stroke-dasharray:none;stroke-dashoffset:0"
       sodipodi:type="arc" /><path
       sodipodi:open="true"
       sodipodi:end="2.2252948"
       sodipodi:start="0.64751715"
       transform="matrix(1.158258,0,0,-1.1593071,-163.60246,130.57359)"
       d="m 265.10054,61.334918 c -19.3651,25.605251 -55.82077,30.663894 -81.42602,11.298795 -0.1079,-0.0816 -0.2155,-0.16357 -0.32282,-0.245918"
       sodipodi:ry="58.128563"
       sodipodi:rx="58.128563"
       sodipodi:cy="26.271305"
       sodipodi:cx="218.73813"
       id="path4378-8"
       style="fill:none;stroke:#464646;stroke-width:0.3451899;stroke-linecap:round;stroke-miterlimit:4;stroke-opacity:1;stroke-dasharray:0.34518991, 2.07113944;stroke-dashoffset:0"
       sodipodi:type="arc" /><path
       style="fill:none;stroke:#000000;stroke-width:0.80000001px;stroke-linecap:round;stroke-linejoin:miter;stroke-opacity:1"
       d="M 89.695385,100.28712 121.57124,44.887381"
       id="path4143"
       inkscape:connector-curvature="0" /><g
       id="g4090"
       transform="matrix(0.46696269,0,0,0.46696269,-16.234305,-12.804958)"><g
         id="g22"><path
           d="m 316.824,117.019 c 0,-9.808 -7.953,-17.762 -17.762,-17.762 -9.808,0 -17.761,7.954 -17.761,17.762 0,9.809 7.953,17.762 17.761,17.762 9.809,0 17.762,-7.953 17.762,-17.762 z"
           style="fill:url(#radialGradient5942);fill-opacity:1;fill-rule:nonzero;stroke:none"
           id="path30"
           inkscape:connector-curvature="0" /></g><g
         id="g32"
         transform="matrix(1,0,0,-1,0,174.24567)"><path
           d="m 316.824,57.227 c 0,9.808 -7.953,17.761 -17.762,17.761 -9.808,0 -17.761,-7.953 -17.761,-17.761 0,-9.809 7.953,-17.762 17.761,-17.762 9.809,0 17.762,7.953 17.762,17.762 z"
           style="fill:none;stroke:#1a0700;stroke-width:1.21407771;stroke-linecap:butt;stroke-linejoin:miter;stroke-miterlimit:4;stroke-opacity:1;stroke-dasharray:none"
           id="path34"
           inkscape:connector-curvature="0" /></g></g><path
       inkscape:connector-curvature="0"
       id="path4380"
       d="m 123.62307,41.574891 0,-31.9321213"
       style="fill:none;stroke:#000000;stroke-width:0.80000001px;stroke-linecap:round;stroke-linejoin:miter;stroke-opacity:1;marker-end:url(#Arrow2Mend)" /><path
       sodipodi:nodetypes="cc"
       inkscape:connector-curvature="0"
       id="path4380-5"
       d="m 130.9869,46.910185 10.90142,7.953883"
       style="fill:none;stroke:#000000;stroke-width:0.80000001px;stroke-linecap:round;stroke-linejoin:miter;stroke-opacity:1;marker-end:url(#Arrow2Mend)" /><g
       ns0:preamble=""
       ns0:text="$\\vec{v}$"
       word-spacing="normal"
       letter-spacing="normal"
       font-size-adjust="none"
       font-stretch="normal"
       font-weight="normal"
       font-variant="normal"
       font-style="normal"
       stroke-miterlimit="10.433"
       xml:space="preserve"
       transform="matrix(1.0987161,0,0,1.1301919,-102.75579,-752.78609)"
       id="content"
       style="font-style:normal;font-variant:normal;font-weight:normal;font-stretch:normal;letter-spacing:normal;word-spacing:normal;text-anchor:start;fill:none;stroke:#000000;stroke-width:1.57043219;stroke-linecap:butt;stroke-linejoin:miter;stroke-miterlimit:10.43299961;stroke-opacity:1;stroke-dasharray:none;stroke-dashoffset:0"><path
         id="path5062"
         d="m 228.39,713.04 -0.02,-0.02 -0.01,-0.01 -0.02,-0.01 -0.01,-0.02 -0.02,-0.01 -0.02,-0.02 -0.02,-0.02 -0.01,-0.01 -0.02,-0.02 -0.02,-0.02 -0.04,-0.04 -0.04,-0.04 -0.04,-0.04 -0.02,-0.02 -0.01,-0.02 -0.02,-0.02 -0.02,-0.02 -0.01,-0.02 -0.02,-0.02 -0.01,-0.02 -0.02,-0.02 -0.01,-0.02 -0.01,-0.02 -0.01,-0.02 -0.01,-0.02 0,-0.02 -0.01,-0.02 0,-0.01 0,-0.02 c 0,-0.1 0.1,-0.2 0.2,-0.2 0.09,0 0.14,0.07 0.19,0.13 0.12,0.15 0.35,0.43 0.78,0.65 0.07,0.04 0.17,0.08 0.17,0.2 0,0.1 -0.07,0.15 -0.14,0.2 -0.22,0.15 -0.32,0.33 -0.4,0.57 -0.02,0.09 -0.06,0.22 -0.2,0.22 -0.14,0 -0.2,-0.13 -0.2,-0.21 0,-0.05 0.08,-0.37 0.24,-0.58 h -3.36 c -0.16,0 -0.34,0 -0.34,-0.2 0,-0.19 0.18,-0.19 0.34,-0.19 z"
         inkscape:connector-curvature="0"
         style="fill:#000000;stroke-width:0" /><path
         id="path5064"
         d="m 228.09,710.82 0,0.02 0,0.03 0,0.02 0,0.03 0,0.02 -0.01,0.02 0,0.02 0,0.02 -0.01,0.04 -0.01,0.04 0,0.04 -0.01,0.04 -0.01,0.03 -0.02,0.03 -0.01,0.03 -0.01,0.03 -0.02,0.02 -0.01,0.03 -0.02,0.02 -0.01,0.02 -0.02,0.02 -0.02,0.02 -0.01,0.01 -0.02,0.02 -0.02,0.01 -0.02,0.01 -0.02,0.01 -0.01,0.01 -0.02,0.01 -0.02,0.01 -0.02,0 -0.02,0.01 -0.02,0 -0.01,0 -0.02,0.01 -0.02,0 c -0.25,0 -0.49,-0.26 -0.49,-0.48 0,-0.13 0.05,-0.19 0.16,-0.3 0.21,-0.2 0.34,-0.46 0.34,-0.81 0,-0.42 -0.61,-2.7 -1.77,-2.7 -0.51,0 -0.74,0.35 -0.74,0.87 0,0.56 0.27,1.28 0.58,2.1 0.07,0.17 0.12,0.31 0.12,0.5 0,0.45 -0.32,0.82 -0.81,0.82 -0.94,0 -1.32,-1.44 -1.32,-1.53 0,-0.1 0.1,-0.1 0.12,-0.1 0.1,0 0.11,0.02 0.16,0.18 0.29,1 0.72,1.23 1.01,1.23 0.08,0 0.24,0 0.24,-0.32 0,-0.25 -0.1,-0.52 -0.16,-0.7 -0.44,-1.15 -0.57,-1.61 -0.57,-2.03 0,-1.08 0.87,-1.23 1.33,-1.23 1.67,0 2.24,3.28 2.24,3.8 z"
         inkscape:connector-curvature="0"
         style="fill:#000000;stroke-width:0" /></g><path
       sodipodi:nodetypes="cc"
       inkscape:connector-curvature="0"
       id="path4380-5-7"
       d="m 119.02515,49.320671 -6.49227,11.296226"
       style="fill:none;stroke:#000000;stroke-width:0.80000001px;stroke-linecap:round;stroke-linejoin:miter;stroke-opacity:1;marker-end:url(#Arrow2Mend)" /><g
       id="g5354"
       transform="matrix(1,0,0,-1,-151.88159,194.3347)"
       xml:space="preserve"
       stroke="black"
       stroke-linecap="butt"
       stroke-linejoin="miter"
       stroke-miterlimit="10.433"
       stroke-dasharray="none"
       stroke-dashoffset="0"
       stroke-opacity="1"
       fill="none"
       fill-rule="evenodd"
       fill-opacity="1"
       font-style="normal"
       font-variant="normal"
       font-weight="normal"
       font-stretch="normal"
       font-size-adjust="none"
       letter-spacing="normal"
       word-spacing="normal"
       text-anchor="start"
       ns0:text="$\\vec{S}$"
       ns0:preamble=""><path
         d="M229.69,715.55 L229.68,715.54 L229.66,715.53 L229.65,715.51 L229.63,715.5 L229.61,715.48 L229.59,715.47 L229.58,715.45 L229.56,715.43 L229.54,715.42 L229.52,715.4 L229.48,715.36 L229.44,715.32 L229.4,715.28 L229.39,715.26 L229.37,715.24 L229.35,715.22 L229.33,715.2 L229.32,715.18 L229.3,715.16 L229.29,715.14 L229.28,715.12 L229.26,715.1 L229.25,715.08 L229.24,715.06 L229.24,715.04 L229.23,715.02 L229.23,715 L229.22,714.98 L229.22,714.97 C229.22,714.87,229.32,714.77,229.42,714.77 C229.51,714.77,229.56,714.84,229.61,714.9 C229.73,715.05,229.96,715.33,230.4,715.54 C230.47,715.58,230.57,715.63,230.57,715.75 C230.57,715.85,230.5,715.9,230.43,715.95 C230.21,716.1,230.1,716.28,230.02,716.52 C230,716.61,229.96,716.74,229.82,716.74 C229.68,716.74,229.62,716.61,229.62,716.53 C229.62,716.48,229.7,716.16,229.86,715.95 H226.51 C226.34,715.95,226.16,715.95,226.16,715.75 C226.16,715.55,226.34,715.55,226.51,715.55 Z "
         stroke-width="0"
         fill="black"
         id="path5356" /><path
         d="M229.85,714.03 L229.85,714.03 L229.85,714.04 L229.85,714.04 L229.85,714.04 L229.85,714.05 L229.85,714.05 L229.85,714.05 L229.84,714.06 L229.84,714.06 L229.84,714.07 L229.84,714.07 L229.84,714.07 L229.84,714.08 L229.83,714.08 L229.83,714.09 L229.83,714.09 L229.82,714.09 L229.82,714.1 L229.82,714.1 L229.81,714.1 L229.81,714.11 L229.8,714.11 L229.8,714.11 L229.79,714.12 L229.79,714.12 L229.79,714.12 L229.78,714.12 L229.78,714.12 L229.78,714.12 L229.77,714.12 L229.77,714.12 L229.77,714.13 L229.76,714.13 L229.76,714.13 L229.76,714.13 L229.75,714.13 L229.75,714.13 L229.74,714.13 L229.74,714.13 C229.69,714.13,229.68,714.12,229.56,713.98 L229.08,713.41 C228.82,713.88,228.31,714.13,227.66,714.13 C226.4,714.13,225.2,712.99,225.2,711.78 C225.2,710.98,225.73,710.52,226.24,710.37 L227.3,710.09 C227.67,710.01,228.22,709.86,228.22,709.04 C228.22,708.15,227.4,707.21,226.43,707.21 C225.79,707.21,224.69,707.43,224.69,708.66 C224.69,708.9,224.74,709.14,224.74,709.2 C224.76,709.24,224.76,709.25,224.76,709.27 C224.76,709.37,224.7,709.38,224.65,709.38 C224.6,709.38,224.58,709.37,224.55,709.34 C224.51,709.3,223.95,707.04,223.95,707.01 C223.95,706.95,224,706.91,224.06,706.91 C224.11,706.91,224.12,706.92,224.24,707.05 L224.73,707.62 C225.15,707.05,225.83,706.91,226.41,706.91 C227.76,706.91,228.93,708.23,228.93,709.46 C228.93,710.15,228.6,710.48,228.45,710.62 C228.22,710.85,228.07,710.89,227.18,711.12 C226.96,711.18,226.61,711.28,226.52,711.3 C226.25,711.39,225.91,711.67,225.91,712.2 C225.91,713.01,226.71,713.85,227.65,713.85 C228.48,713.85,229.08,713.42,229.08,712.31 C229.08,711.99,229.04,711.81,229.04,711.75 C229.04,711.74,229.04,711.66,229.16,711.66 C229.26,711.66,229.27,711.68,229.31,711.85 Z "
         stroke-width="0"
         fill="black"
         id="path5358" /></g><g
       ns0:preamble=""
       ns0:text="$\\vec{S}$"
       word-spacing="normal"
       letter-spacing="normal"
       font-size-adjust="none"
       font-stretch="normal"
       font-weight="normal"
       font-variant="normal"
       font-style="normal"
       stroke-miterlimit="10.433"
       xml:space="preserve"
       transform="matrix(0.87066264,0,0,0.91895094,-77.174085,-591.37519)"
       id="g5582"
       style="font-style:normal;font-variant:normal;font-weight:normal;font-stretch:normal;letter-spacing:normal;word-spacing:normal;text-anchor:start;fill:none;stroke:#000000;stroke-width:1.95644176;stroke-linecap:butt;stroke-linejoin:miter;stroke-miterlimit:10.43299961;stroke-opacity:1;stroke-dasharray:none;stroke-dashoffset:0"><path
         id="path5584"
         d="m 229.69,715.55 -0.01,-0.01 -0.02,-0.01 -0.01,-0.02 -0.02,-0.01 -0.02,-0.02 -0.02,-0.01 -0.01,-0.02 -0.02,-0.02 -0.02,-0.01 -0.02,-0.02 -0.04,-0.04 -0.04,-0.04 -0.04,-0.04 -0.01,-0.02 -0.02,-0.02 -0.02,-0.02 -0.02,-0.02 -0.01,-0.02 -0.02,-0.02 -0.01,-0.02 -0.01,-0.02 -0.02,-0.02 -0.01,-0.02 -0.01,-0.02 0,-0.02 -0.01,-0.02 0,-0.02 -0.01,-0.02 0,-0.01 c 0,-0.1 0.1,-0.2 0.2,-0.2 0.09,0 0.14,0.07 0.19,0.13 0.12,0.15 0.35,0.43 0.79,0.64 0.07,0.04 0.17,0.09 0.17,0.21 0,0.1 -0.07,0.15 -0.14,0.2 -0.22,0.15 -0.33,0.33 -0.41,0.57 -0.02,0.09 -0.06,0.22 -0.2,0.22 -0.14,0 -0.2,-0.13 -0.2,-0.21 0,-0.05 0.08,-0.37 0.24,-0.58 h -3.35 c -0.17,0 -0.35,0 -0.35,-0.2 0,-0.2 0.18,-0.2 0.35,-0.2 z"
         inkscape:connector-curvature="0"
         style="fill:#000000;stroke-width:0" /><path
         id="path5586"
         d="m 229.85,714.03 0,0 0,0.01 0,0 0,0 0,0.01 0,0 0,0 -0.01,0.01 0,0 0,0.01 0,0 0,0 0,0.01 -0.01,0 0,0.01 0,0 -0.01,0 0,0.01 0,0 -0.01,0 0,0.01 -0.01,0 0,0 -0.01,0.01 0,0 0,0 -0.01,0 0,0 0,0 -0.01,0 0,0 0,0.01 -0.01,0 0,0 0,0 -0.01,0 0,0 -0.01,0 0,0 c -0.05,0 -0.06,-0.01 -0.18,-0.15 l -0.48,-0.57 c -0.26,0.47 -0.77,0.72 -1.42,0.72 -1.26,0 -2.46,-1.14 -2.46,-2.35 0,-0.8 0.53,-1.26 1.04,-1.41 l 1.06,-0.28 c 0.37,-0.08 0.92,-0.23 0.92,-1.05 0,-0.89 -0.82,-1.83 -1.79,-1.83 -0.64,0 -1.74,0.22 -1.74,1.45 0,0.24 0.05,0.48 0.05,0.54 0.02,0.04 0.02,0.05 0.02,0.07 0,0.1 -0.06,0.11 -0.11,0.11 -0.05,0 -0.07,-0.01 -0.1,-0.04 -0.04,-0.04 -0.6,-2.3 -0.6,-2.33 0,-0.06 0.05,-0.1 0.11,-0.1 0.05,0 0.06,0.01 0.18,0.14 l 0.49,0.57 c 0.42,-0.57 1.1,-0.71 1.68,-0.71 1.35,0 2.52,1.32 2.52,2.55 0,0.69 -0.33,1.02 -0.48,1.16 -0.23,0.23 -0.38,0.27 -1.27,0.5 -0.22,0.06 -0.57,0.16 -0.66,0.18 -0.27,0.09 -0.61,0.37 -0.61,0.9 0,0.81 0.8,1.65 1.74,1.65 0.83,0 1.43,-0.43 1.43,-1.54 0,-0.32 -0.04,-0.5 -0.04,-0.56 0,-0.01 0,-0.09 0.12,-0.09 0.1,0 0.11,0.02 0.15,0.19 z"
         inkscape:connector-curvature="0"
         style="fill:#000000;stroke-width:0" /></g><g
       style="font-style:normal;font-variant:normal;font-weight:normal;font-stretch:normal;letter-spacing:normal;word-spacing:normal;text-anchor:start;fill:none;stroke:#000000;stroke-width:1.92211473;stroke-linecap:butt;stroke-linejoin:miter;stroke-miterlimit:10.43299961;stroke-opacity:1;stroke-dasharray:none;stroke-dashoffset:0"
       id="g5816"
       transform="matrix(0.89299191,0,0,0.92826067,-72.699425,-647.56985)"
       xml:space="preserve"
       stroke-miterlimit="10.433"
       font-style="normal"
       font-variant="normal"
       font-weight="normal"
       font-stretch="normal"
       font-size-adjust="none"
       letter-spacing="normal"
       word-spacing="normal"
       ns0:text="$\\vec{G}$"
       ns0:preamble=""><path
         style="fill:#000000;stroke-width:0"
         inkscape:connector-curvature="0"
         d="m 230.26,715.55 -0.01,-0.01 -0.01,-0.01 -0.02,-0.02 -0.02,-0.01 -0.01,-0.02 -0.02,-0.01 -0.02,-0.02 -0.02,-0.02 -0.02,-0.01 -0.02,-0.02 -0.03,-0.04 -0.04,-0.04 -0.04,-0.04 -0.02,-0.02 -0.02,-0.02 -0.02,-0.02 -0.01,-0.02 -0.02,-0.02 -0.01,-0.02 -0.02,-0.02 -0.01,-0.02 -0.01,-0.02 -0.01,-0.02 -0.01,-0.02 -0.01,-0.02 0,-0.02 -0.01,-0.02 0,-0.02 0,-0.01 c 0,-0.1 0.1,-0.2 0.2,-0.2 0.09,0 0.13,0.07 0.18,0.13 0.12,0.15 0.35,0.43 0.79,0.64 0.07,0.04 0.17,0.09 0.17,0.21 0,0.1 -0.07,0.15 -0.14,0.2 -0.22,0.15 -0.33,0.33 -0.41,0.57 -0.02,0.09 -0.06,0.22 -0.2,0.22 -0.13,0 -0.19,-0.13 -0.19,-0.21 0,-0.05 0.07,-0.37 0.23,-0.58 h -3.35 c -0.17,0 -0.35,0 -0.35,-0.2 0,-0.2 0.18,-0.2 0.35,-0.2 z"
         id="path5818" /><path
         style="fill:#000000;stroke-width:0"
         inkscape:connector-curvature="0"
         d="m 230.99,714.03 0,0 0,0.01 0,0 0,0 0,0.01 0,0 0,0 0,0.01 0,0 0,0.01 -0.01,0 0,0 0,0.01 0,0 -0.01,0.01 0,0 0,0 0,0.01 -0.01,0 0,0 -0.01,0.01 0,0 -0.01,0 0,0.01 -0.01,0 0,0 0,0 -0.01,0 0,0 0,0 -0.01,0 0,0.01 0,0 -0.01,0 0,0 0,0 -0.01,0 0,0 -0.01,0 c -0.03,0 -0.04,-0.01 -0.14,-0.12 l -0.7,-0.77 c -0.09,0.14 -0.55,0.89 -1.65,0.89 -2.22,0 -4.46,-2.2 -4.46,-4.5 0,-1.58 1.1,-2.72 2.72,-2.72 0.43,0 0.88,0.09 1.24,0.24 0.5,0.19 0.69,0.4 0.87,0.6 0.08,-0.25 0.34,-0.61 0.44,-0.61 0.05,0 0.07,0.02 0.07,0.03 0.02,0.02 0.12,0.4 0.17,0.61 l 0.19,0.77 c 0.04,0.16 0.09,0.33 0.13,0.5 0.11,0.45 0.12,0.47 0.69,0.48 0.05,0 0.15,0.01 0.15,0.2 0,0.07 -0.04,0.11 -0.12,0.11 -0.23,0 -0.82,-0.03 -1.05,-0.03 -0.31,0 -1.08,0.03 -1.39,0.03 -0.09,0 -0.21,0 -0.21,-0.2 0,-0.11 0.08,-0.11 0.3,-0.11 0.01,0 0.3,0 0.52,-0.02 0.26,-0.03 0.31,-0.06 0.31,-0.19 0,-0.09 -0.11,-0.54 -0.2,-0.9 -0.28,-1.1 -1.58,-1.21 -1.92,-1.21 -0.96,0 -2,0.57 -2,2.09 0,0.31 0.09,1.95 1.14,3.24 0.54,0.67 1.5,1.28 2.49,1.28 1.01,0 1.6,-0.77 1.6,-1.92 0,-0.39 -0.03,-0.4 -0.03,-0.5 0,-0.1 0.11,-0.1 0.15,-0.1 0.13,0 0.13,0.02 0.18,0.2 z"
         id="path5820" /></g><rect
       transform="matrix(0,-1,-1,0,0,0)"
       style="fill:url(#linearGradient5964);fill-opacity:1;stroke:none"
       id="rect3942-0"
       width="33.22369"
       height="10.436938"
       x="-65.007057"
       y="-234.63075" /><path
       style="fill:none;stroke:#000000;stroke-width:0.80000007px;stroke-linecap:round;stroke-linejoin:miter;stroke-opacity:1"
       d="m 234.32728,64.968316 0,-33.13332"
       id="path3034-8"
       inkscape:connector-curvature="0" /><rect
       style="fill:url(#linearGradient5946);fill-opacity:1;stroke:none"
       id="rect3942"
       width="138.07309"
       height="16.350595"
       x="204.21591"
       y="-32.335869"
       transform="scale(1,-1)" /><path
       style="fill:none;stroke:#000000;stroke-width:0.80000001px;stroke-linecap:round;stroke-linejoin:miter;stroke-opacity:1"
       d="m 204.37689,32.032401 137.69754,0"
       id="path3034"
       inkscape:connector-curvature="0" /><path
       inkscape:connector-curvature="0"
       id="path5985"
       d="m 234.2318,64.765676 -4.09924,-4.099238"
       style="fill:none;stroke:#000000;stroke-width:0.80000001px;stroke-linecap:round;stroke-linejoin:miter;stroke-opacity:1" /><path
       inkscape:connector-curvature="0"
       id="path5985-5"
       d="m 234.23213,56.765678 -4.09924,-4.09924"
       style="fill:none;stroke:#000000;stroke-width:0.80000001px;stroke-linecap:round;stroke-linejoin:miter;stroke-opacity:1" /><path
       inkscape:connector-curvature="0"
       id="path5985-9"
       d="m 234.23213,48.765678 -4.09924,-4.09924"
       style="fill:none;stroke:#000000;stroke-width:0.80000001px;stroke-linecap:round;stroke-linejoin:miter;stroke-opacity:1" /><path
       inkscape:connector-curvature="0"
       id="path5985-5-6"
       d="m 234.23213,40.765679 -4.09924,-4.099241"
       style="fill:none;stroke:#000000;stroke-width:0.80000001px;stroke-linecap:round;stroke-linejoin:miter;stroke-opacity:1" /><path
       sodipodi:nodetypes="cczzzzzzzzzcc"
       inkscape:connector-curvature="0"
       id="path6038"
       d="m 234.4,44.000002 5.87727,-0.118711 c 0,0 0.71824,6.792134 2.84831,6.417554 2.13006,-0.374581 3.28694,-12.89452 0.5082,-12.89452 -2.77874,0 -0.75691,12.955802 2.02183,12.955802 2.77874,0 4.80056,-12.955802 2.02183,-12.955802 -2.77874,0 -0.75691,12.955802 2.02183,12.955802 2.77874,0 4.80057,-12.955802 2.02183,-12.955802 -2.77875,0 -0.75691,12.955802 2.02183,12.955802 2.77874,0 4.80057,-12.955802 2.02183,-12.955802 -2.77874,0 -1.80223,12.519004 0.32783,12.893584 2.13007,0.374581 2.59341,-6.416618 2.59341,-6.416618 l 4.15516,9.57e-4"
       style="fill:none;stroke:#000000;stroke-width:0.79999995px;stroke-linecap:butt;stroke-linejoin:miter;stroke-opacity:1" /><path
       sodipodi:nodetypes="cc"
       inkscape:connector-curvature="0"
       id="path4380-5-2"
       d="m 302.96173,44.000002 16.70567,0"
       style="fill:none;stroke:#000000;stroke-width:0.80000001px;stroke-linecap:round;stroke-linejoin:miter;stroke-opacity:1;marker-end:url(#Arrow2Mend)" /><path
       style="font-style:normal;font-variant:normal;font-weight:normal;font-stretch:normal;letter-spacing:normal;word-spacing:normal;text-anchor:start;fill:#000000;stroke:#000000;stroke-width:0;stroke-linecap:butt;stroke-linejoin:miter;stroke-miterlimit:10.43299961;stroke-opacity:1;stroke-dasharray:none;stroke-dashoffset:0"
       inkscape:connector-curvature="0"
       d="m 325.1975,41.949309 0,0.0226 0,0.03391 0,0.0226 0,0.03391 0,0.0226 -0.011,0.0226 0,0.0226 0,0.0226 -0.011,0.04521 -0.011,0.04521 0,0.04521 -0.011,0.04521 -0.011,0.0339 -0.022,0.03391 -0.011,0.03391 -0.011,0.03391 -0.022,0.0226 -0.011,0.03391 -0.022,0.0226 -0.011,0.0226 -0.022,0.0226 -0.022,0.0226 -0.011,0.0113 -0.022,0.0226 -0.022,0.0113 -0.022,0.0113 -0.022,0.0113 -0.011,0.0113 -0.022,0.0113 -0.022,0.0113 -0.022,0 -0.022,0.0113 -0.022,0 -0.011,0 -0.022,0.0113 -0.022,0 c -0.27468,0 -0.53837,-0.29385 -0.53837,-0.542492 0,-0.146925 0.0549,-0.214737 0.17579,-0.339058 0.23074,-0.226038 0.37357,-0.519888 0.37357,-0.915455 0,-0.474681 -0.67022,-3.051519 -1.94473,-3.051519 -0.56034,0 -0.81305,0.395568 -0.81305,0.983267 0,0.632908 0.29665,1.446646 0.63726,2.373403 0.0769,0.192133 0.13184,0.35036 0.13184,0.565096 0,0.508587 -0.35159,0.926758 -0.88996,0.926758 -1.03279,0 -1.4503,-1.627477 -1.4503,-1.729194 0,-0.113019 0.10987,-0.113019 0.13184,-0.113019 0.10987,0 0.12086,0.0226 0.1758,0.203434 0.31863,1.130192 0.79107,1.390136 1.1097,1.390136 0.0879,0 0.26369,0 0.26369,-0.361661 0,-0.282548 -0.10987,-0.5877 -0.17579,-0.791134 -0.48344,-1.299721 -0.62627,-1.819609 -0.62627,-2.29429 0,-1.220607 0.95588,-1.390136 1.46129,-1.390136 1.83486,0 2.46113,3.70703 2.46113,4.294729 z"
       id="path5064-0" /><g
       ns0:preamble=""
       ns0:text="$R$"
       word-spacing="normal"
       letter-spacing="normal"
       font-size-adjust="none"
       font-stretch="normal"
       font-weight="normal"
       font-variant="normal"
       font-style="normal"
       stroke-miterlimit="10.433"
       xml:space="preserve"
       transform="matrix(0.92864625,0,0,0.92704614,-102.64447,-575.17995)"
       id="g6230"
       style="font-style:normal;font-variant:normal;font-weight:normal;font-stretch:normal;letter-spacing:normal;word-spacing:normal;text-anchor:start;fill:none;stroke:#000000;stroke-width:1.88608921;stroke-linecap:butt;stroke-linejoin:miter;stroke-miterlimit:10.43299961;stroke-opacity:1;stroke-dasharray:none;stroke-dashoffset:0"><path
         id="path6232"
         d="m 228.6,710.5 0.09,0.02 0.1,0.03 0.09,0.03 0.1,0.03 0.09,0.03 0.1,0.03 0.1,0.04 0.09,0.04 0.1,0.05 0.09,0.04 0.09,0.05 0.09,0.05 0.09,0.05 0.08,0.06 0.09,0.06 0.08,0.06 0.07,0.06 0.08,0.06 0.07,0.07 0.07,0.07 0.06,0.07 0.06,0.07 0.05,0.08 0.05,0.08 0.05,0.08 0.04,0.08 0.03,0.08 0.03,0.09 0.02,0.09 0.02,0.09 0.01,0.09 0,0.09 c 0,0.85 -0.89,1.49 -2.19,1.49 h -2.84 c -0.2,0 -0.29,0 -0.29,-0.2 0,-0.11 0.09,-0.11 0.28,-0.11 0.02,0 0.21,0 0.38,-0.02 0.18,-0.02 0.27,-0.03 0.27,-0.16 0,-0.04 -0.01,-0.07 -0.04,-0.19 l -1.34,-5.33 c -0.1,-0.39 -0.11,-0.47 -0.9,-0.47 -0.18,0 -0.27,0 -0.27,-0.2 0,-0.11 0.12,-0.11 0.14,-0.11 0.28,0 0.97,0.04 1.25,0.04 0.28,0 0.99,-0.04 1.27,-0.04 0.08,0 0.2,0 0.2,0.2 0,0.11 -0.09,0.11 -0.28,0.11 -0.37,0 -0.65,0 -0.65,0.18 0,0.06 0.02,0.11 0.03,0.17 l 0.66,2.63 h 1.18 l -0.01,0.22 h -1.11 l 0.64,2.59 c 0.06,0.24 0.09,0.34 0.28,0.37 0.09,0.01 0.41,0.01 0.61,0.01 0.71,0 1.81,0 1.81,-0.98 0,-0.34 -0.16,-1.03 -0.55,-1.41 -0.26,-0.26 -0.78,-0.58 -1.68,-0.58 l 0.01,-0.22 c 0.91,0 1.09,-0.55 1.09,-0.9 0,-0.15 -0.08,-0.46 -0.14,-0.69 -0.07,-0.27 -0.16,-0.64 -0.16,-0.84 0,-1.07 1.19,-1.07 1.32,-1.07 0.85,0 1.19,1 1.19,1.14 0,0.12 -0.11,0.12 -0.12,0.12 -0.08,0 -0.11,-0.07 -0.12,-0.14 -0.25,-0.74 -0.68,-0.91 -0.91,-0.91 -0.33,0 -0.4,0.22 -0.4,0.61 0,0.31 0.06,0.82 0.1,1.13 0.02,0.14 0.04,0.33 0.04,0.47 0,0.76 -0.67,1.07 -0.93,1.17 z"
         inkscape:connector-curvature="0"
         style="fill:#000000;stroke-width:0" /></g></g></svg>