<?xml version="1.0" encoding="utf-8"?>
<!-- Generator: Adobe Illustrator 16.0.0, SVG Export Plug-In . SVG Version: 6.00 Build 0)  -->
<!DOCTYPE svg PUBLIC "-//W3C//DTD SVG 1.1//EN" "http://www.w3.org/Graphics/SVG/1.1/DTD/svg11.dtd">
<svg version="1.1" xmlns="http://www.w3.org/2000/svg" xmlns:xlink="http://www.w3.org/1999/xlink" x="0px" y="0px"
	 width="303.084px" height="198.166px" viewBox="0 0 303.084 198.166" enable-background="new 0 0 303.084 198.166"
	 xml:space="preserve">
<g id="Layer_2">
	<circle fill="#F9DF6E" cx="146.344" cy="102.842" r="31.5"/>
</g>
<g id="Layer_3" display="none">
	<circle display="inline" fill="#82CEE1" cx="155.12" cy="116.368" r="13.526"/>
	
		<text transform="matrix(0.583 0 0 0.583 98.8901 40.4854)" display="inline" fill="#6B622C" font-family="'PTSerif-Regular'" font-size="40.9702" letter-spacing="1.715">Ledd</text>
	<g display="inline">
		
			<text transform="matrix(0.583 0 0 0.583 146.3442 182.4858)" fill="#294E57" font-family="'PTSerif-Regular'" font-size="40.9702" letter-spacing="1.715">Leddnummer</text>
	</g>
	<g display="inline">
		<g>
			
				<line fill="none" stroke="#6B622C" stroke-width="2" stroke-miterlimit="10" x1="146.344" y1="44.654" x2="146.344" y2="74.845"/>
			<g>
				<polygon fill="#6B622C" points="143.672,69.879 144.462,69.592 146.344,74.763 148.226,69.592 149.015,69.879 146.344,77.218 
									"/>
			</g>
		</g>
	</g>
	<g display="inline">
		<g>
			<line fill="none" stroke="#294E57" stroke-width="2" stroke-miterlimit="10" x1="156.816" y1="162.5" x2="156.816" y2="128.31"/>
			<g>
				<polygon fill="#294E57" points="159.488,133.275 158.698,133.562 156.816,128.392 154.935,133.562 154.146,133.275 
					156.816,125.936 				"/>
			</g>
		</g>
	</g>
</g>
<g id="Layer_3_copy">
	<circle fill="#82CEE1" cx="155.12" cy="116.368" r="13.526"/>
	<g>
		<path fill="#6B622C" d="M99.583,23.765h6.544v0.692c-0.382,0.144-0.764,0.268-1.146,0.37c-0.382,0.104-0.764,0.18-1.146,0.228
			v14.188h5.494l1.409-3.845h0.621c0.048,0.334,0.091,0.72,0.131,1.158c0.04,0.438,0.072,0.892,0.096,1.361s0.036,0.928,0.036,1.373
			c0,0.446-0.008,0.845-0.024,1.194H99.583v-0.692c0.382-0.175,0.732-0.303,1.051-0.382c0.318-0.08,0.621-0.144,0.908-0.191V25.055
			c-0.367-0.063-0.717-0.147-1.051-0.251c-0.334-0.104-0.637-0.219-0.907-0.347V23.765z"/>
		<path fill="#6B622C" d="M124.13,38.813c-0.127,0.271-0.326,0.525-0.597,0.765c-0.271,0.238-0.581,0.446-0.931,0.621
			c-0.351,0.175-0.733,0.314-1.146,0.418c-0.415,0.104-0.836,0.155-1.266,0.155c-0.94,0-1.768-0.147-2.484-0.442
			c-0.716-0.294-1.313-0.716-1.791-1.266c-0.478-0.55-0.84-1.206-1.087-1.971c-0.247-0.765-0.37-1.624-0.37-2.579
			c0-2.039,0.469-3.591,1.409-4.658c0.939-1.066,2.269-1.601,3.989-1.601c0.557,0,1.106,0.076,1.648,0.228s1.023,0.402,1.445,0.752
			c0.422,0.351,0.764,0.816,1.027,1.397s0.394,1.302,0.394,2.161c0,0.271-0.012,0.546-0.036,0.824
			c-0.024,0.279-0.068,0.578-0.131,0.896h-7.452c0,0.668,0.083,1.294,0.25,1.875c0.167,0.581,0.418,1.086,0.752,1.517
			c0.334,0.43,0.756,0.769,1.266,1.015c0.509,0.247,1.106,0.37,1.792,0.37c0.557,0,1.123-0.079,1.696-0.238s1.003-0.366,1.29-0.621
			L124.13,38.813z M119.759,29.306c-0.908,0-1.6,0.308-2.078,0.92c-0.478,0.613-0.765,1.692-0.86,3.236h5.255
			c0.016-0.143,0.028-0.282,0.036-0.418c0.008-0.135,0.012-0.267,0.012-0.394c0-1.02-0.191-1.831-0.573-2.437
			C121.168,29.609,120.571,29.306,119.759,29.306z"/>
		<path fill="#6B622C" d="M135.451,38.121c-0.08,0.351-0.215,0.685-0.406,1.003c-0.191,0.318-0.426,0.602-0.705,0.848
			c-0.279,0.247-0.597,0.442-0.956,0.586c-0.358,0.143-0.745,0.215-1.159,0.215c-1.576,0-2.755-0.502-3.535-1.505
			c-0.781-1.003-1.17-2.563-1.17-4.682c0-2.038,0.497-3.591,1.493-4.658c0.995-1.066,2.337-1.6,4.025-1.6
			c0.589,0,1.051,0.027,1.385,0.083c0.334,0.057,0.701,0.155,1.099,0.299v-4.515l-1.815-0.19v-0.621
			c0.462-0.191,0.999-0.358,1.612-0.502c0.613-0.144,1.198-0.263,1.756-0.358h0.597v16.601l1.576,0.191v0.501
			c-0.462,0.224-0.939,0.415-1.433,0.573c-0.494,0.159-0.979,0.271-1.457,0.335h-0.597l-0.215-2.604H135.451z M132.705,39.291
			c0.78,0,1.401-0.246,1.863-0.74c0.462-0.493,0.78-1.162,0.956-2.006v-6.736c-0.271-0.159-0.589-0.271-0.956-0.334
			s-0.836-0.096-1.409-0.096c-1.083,0-1.911,0.474-2.484,1.421c-0.573,0.948-0.86,2.21-0.86,3.786c0,0.653,0.056,1.262,0.167,1.827
			s0.287,1.063,0.525,1.493c0.239,0.43,0.538,0.769,0.896,1.015C131.761,39.167,132.195,39.291,132.705,39.291z"/>
		<path fill="#6B622C" d="M149.589,38.121c-0.08,0.351-0.215,0.685-0.406,1.003c-0.191,0.318-0.426,0.602-0.705,0.848
			c-0.279,0.247-0.597,0.442-0.956,0.586c-0.358,0.143-0.745,0.215-1.159,0.215c-1.576,0-2.755-0.502-3.535-1.505
			c-0.781-1.003-1.17-2.563-1.17-4.682c0-2.038,0.497-3.591,1.493-4.658c0.995-1.066,2.337-1.6,4.025-1.6
			c0.589,0,1.051,0.027,1.385,0.083c0.334,0.057,0.701,0.155,1.099,0.299v-4.515l-1.815-0.19v-0.621
			c0.462-0.191,0.999-0.358,1.612-0.502c0.613-0.144,1.198-0.263,1.756-0.358h0.597v16.601l1.576,0.191v0.501
			c-0.462,0.224-0.939,0.415-1.433,0.573c-0.494,0.159-0.979,0.271-1.457,0.335h-0.597l-0.215-2.604H149.589z M146.842,39.291
			c0.78,0,1.401-0.246,1.863-0.74c0.462-0.493,0.78-1.162,0.956-2.006v-6.736c-0.271-0.159-0.589-0.271-0.956-0.334
			s-0.836-0.096-1.409-0.096c-1.083,0-1.911,0.474-2.484,1.421c-0.573,0.948-0.86,2.21-0.86,3.786c0,0.653,0.056,1.262,0.167,1.827
			s0.287,1.063,0.525,1.493c0.239,0.43,0.538,0.769,0.896,1.015C145.899,39.167,146.333,39.291,146.842,39.291z"/>
	</g>
	<g>
		<path fill="#294E57" d="M147.037,165.765h6.544v0.692c-0.382,0.144-0.764,0.268-1.146,0.37c-0.382,0.104-0.764,0.18-1.146,0.228
			v14.188h5.494l1.409-3.845h0.621c0.048,0.334,0.091,0.72,0.131,1.158c0.04,0.438,0.072,0.892,0.096,1.361s0.036,0.928,0.036,1.373
			c0,0.446-0.008,0.845-0.024,1.194h-12.014v-0.692c0.382-0.175,0.732-0.303,1.051-0.382c0.318-0.08,0.621-0.144,0.908-0.191
			v-14.164c-0.367-0.063-0.717-0.147-1.051-0.251c-0.334-0.104-0.637-0.219-0.907-0.347V165.765z"/>
		<path fill="#294E57" d="M171.584,180.813c-0.127,0.271-0.326,0.525-0.598,0.765c-0.271,0.238-0.58,0.446-0.931,0.621
			s-0.733,0.314-1.146,0.418c-0.415,0.104-0.837,0.155-1.267,0.155c-0.939,0-1.768-0.147-2.484-0.442
			c-0.716-0.294-1.313-0.716-1.791-1.266c-0.478-0.55-0.84-1.206-1.086-1.971c-0.247-0.765-0.37-1.624-0.37-2.579
			c0-2.039,0.469-3.591,1.41-4.658c0.939-1.066,2.269-1.601,3.988-1.601c0.557,0,1.106,0.076,1.648,0.228
			c0.541,0.151,1.022,0.402,1.445,0.752c0.422,0.351,0.764,0.816,1.026,1.397s0.394,1.302,0.394,2.161
			c0,0.271-0.012,0.546-0.035,0.824c-0.023,0.279-0.068,0.578-0.131,0.896h-7.453c0,0.668,0.084,1.294,0.251,1.875
			s0.418,1.086,0.753,1.517c0.334,0.43,0.756,0.769,1.266,1.015c0.51,0.247,1.106,0.37,1.791,0.37c0.558,0,1.123-0.079,1.696-0.238
			s1.003-0.366,1.29-0.621L171.584,180.813z M167.213,171.306c-0.908,0-1.6,0.308-2.078,0.92c-0.478,0.613-0.764,1.692-0.859,3.236
			h5.254c0.016-0.143,0.028-0.282,0.037-0.418c0.008-0.135,0.012-0.267,0.012-0.394c0-1.02-0.191-1.831-0.574-2.437
			C168.623,171.609,168.025,171.306,167.213,171.306z"/>
		<path fill="#294E57" d="M182.905,180.121c-0.079,0.351-0.215,0.685-0.405,1.003c-0.191,0.318-0.427,0.602-0.705,0.848
			c-0.279,0.247-0.598,0.442-0.955,0.586c-0.359,0.143-0.745,0.215-1.159,0.215c-1.576,0-2.755-0.502-3.534-1.505
			c-0.781-1.003-1.171-2.563-1.171-4.682c0-2.038,0.497-3.591,1.493-4.658c0.994-1.066,2.336-1.6,4.024-1.6
			c0.589,0,1.051,0.027,1.386,0.083c0.334,0.057,0.7,0.155,1.098,0.299v-4.515l-1.814-0.19v-0.621
			c0.461-0.191,0.998-0.358,1.611-0.502s1.199-0.263,1.756-0.358h0.598v16.601l1.576,0.191v0.501
			c-0.462,0.224-0.939,0.415-1.434,0.573c-0.493,0.159-0.979,0.271-1.457,0.335h-0.597l-0.215-2.604H182.905z M180.158,181.291
			c0.78,0,1.401-0.246,1.863-0.74c0.462-0.493,0.78-1.162,0.955-2.006v-6.736c-0.271-0.159-0.589-0.271-0.955-0.334
			s-0.836-0.096-1.409-0.096c-1.083,0-1.911,0.474-2.483,1.421c-0.574,0.948-0.86,2.21-0.86,3.786c0,0.653,0.056,1.262,0.167,1.827
			s0.287,1.063,0.525,1.493c0.239,0.43,0.537,0.769,0.896,1.015C179.215,181.167,179.648,181.291,180.158,181.291z"/>
		<path fill="#294E57" d="M197.043,180.121c-0.08,0.351-0.215,0.685-0.406,1.003s-0.426,0.602-0.704,0.848
			c-0.278,0.247-0.597,0.442-0.956,0.586c-0.357,0.143-0.744,0.215-1.158,0.215c-1.576,0-2.755-0.502-3.535-1.505
			s-1.17-2.563-1.17-4.682c0-2.038,0.497-3.591,1.492-4.658c0.996-1.066,2.338-1.6,4.025-1.6c0.589,0,1.051,0.027,1.385,0.083
			c0.335,0.057,0.701,0.155,1.1,0.299v-4.515l-1.816-0.19v-0.621c0.463-0.191,1-0.358,1.613-0.502
			c0.612-0.144,1.197-0.263,1.756-0.358h0.597v16.601l1.576,0.191v0.501c-0.462,0.224-0.939,0.415-1.433,0.573
			c-0.494,0.159-0.979,0.271-1.457,0.335h-0.598l-0.215-2.604H197.043z M194.297,181.291c0.779,0,1.4-0.246,1.862-0.74
			c0.462-0.493,0.78-1.162,0.956-2.006v-6.736c-0.271-0.159-0.59-0.271-0.956-0.334s-0.836-0.096-1.409-0.096
			c-1.083,0-1.91,0.474-2.484,1.421c-0.572,0.948-0.859,2.21-0.859,3.786c0,0.653,0.056,1.262,0.167,1.827s0.286,1.063,0.525,1.493
			c0.239,0.43,0.538,0.769,0.896,1.015C193.354,181.167,193.787,181.291,194.297,181.291z"/>
		<path fill="#294E57" d="M216.668,182.485h-5.136v-0.597c0.431-0.223,0.899-0.414,1.409-0.573v-5.661
			c0-1.21-0.176-2.165-0.525-2.866c-0.351-0.7-0.987-1.051-1.91-1.051c-0.398,0-0.77,0.071-1.111,0.215
			c-0.343,0.144-0.645,0.339-0.908,0.585c-0.262,0.247-0.489,0.525-0.68,0.836c-0.191,0.311-0.344,0.633-0.454,0.968v6.975
			c0.493,0.096,0.971,0.286,1.433,0.573v0.597h-5.159v-0.597c0.397-0.207,0.923-0.398,1.577-0.573v-9.388l-1.577-0.19v-0.621
			c0.414-0.175,0.892-0.335,1.434-0.478c0.541-0.144,1.106-0.271,1.696-0.383h0.597v2.676h0.024
			c0.334-0.732,0.814-1.361,1.444-1.888c0.629-0.525,1.39-0.788,2.281-0.788c0.637,0,1.206,0.076,1.708,0.228s0.92,0.418,1.254,0.8
			s0.589,0.896,0.764,1.541c0.176,0.645,0.264,1.461,0.264,2.448v6.043c0.637,0.111,1.162,0.303,1.576,0.573V182.485z"/>
		<path fill="#294E57" d="M219.615,177.755c0-1.003,0.023-1.986,0.071-2.949c0.048-0.964,0.071-1.923,0.071-2.879l-1.576-0.19
			v-0.621c0.51-0.191,1.031-0.358,1.564-0.502s1.055-0.263,1.564-0.358h0.598c0,1.194-0.023,2.381-0.072,3.56
			c-0.047,1.179-0.071,2.349-0.071,3.511c0,0.621,0.036,1.179,0.107,1.672c0.071,0.494,0.199,0.908,0.382,1.242
			c0.184,0.335,0.434,0.594,0.753,0.776c0.318,0.184,0.725,0.274,1.218,0.274c0.717,0,1.318-0.259,1.804-0.776
			c0.485-0.517,0.864-1.189,1.135-2.018v-6.569l-1.553-0.19v-0.621c0.493-0.191,1.007-0.358,1.54-0.502s1.055-0.263,1.564-0.358
			h0.598v10.868l1.576,0.191v0.501c-0.461,0.208-0.928,0.391-1.396,0.55c-0.471,0.159-0.96,0.278-1.469,0.358h-0.598l-0.168-2.843
			h-0.095c-0.08,0.335-0.22,0.673-0.418,1.016c-0.2,0.343-0.458,0.653-0.776,0.932s-0.681,0.505-1.087,0.681
			c-0.406,0.175-0.849,0.263-1.325,0.263c-0.638,0-1.199-0.076-1.685-0.228c-0.485-0.15-0.896-0.418-1.229-0.8
			c-0.335-0.382-0.59-0.896-0.765-1.541C219.703,179.559,219.615,178.744,219.615,177.755z"/>
		<path fill="#294E57" d="M246.044,182.485h-5.111v-0.597c0.159-0.096,0.354-0.195,0.585-0.299s0.506-0.194,0.824-0.274v-5.518
			c0-0.637-0.028-1.21-0.084-1.72s-0.159-0.936-0.311-1.278c-0.151-0.342-0.37-0.604-0.656-0.788
			c-0.287-0.183-0.661-0.274-1.123-0.274c-0.351,0-0.673,0.071-0.967,0.215c-0.295,0.144-0.559,0.334-0.789,0.573
			c-0.23,0.238-0.43,0.51-0.597,0.812c-0.167,0.303-0.299,0.621-0.394,0.956v7.022c0.254,0.08,0.496,0.163,0.729,0.251
			c0.23,0.087,0.457,0.194,0.68,0.322v0.597h-5.135v-0.597c0.223-0.111,0.469-0.215,0.74-0.311c0.271-0.096,0.549-0.183,0.836-0.263
			v-9.388l-1.576-0.19v-0.621c0.51-0.223,1.031-0.402,1.564-0.538c0.533-0.135,1.055-0.242,1.564-0.322h0.598v2.699h0.023
			c0.254-0.748,0.688-1.385,1.302-1.911c0.612-0.525,1.373-0.788,2.28-0.788c0.383,0,0.749,0.04,1.1,0.12
			c0.35,0.079,0.676,0.227,0.979,0.441s0.558,0.514,0.765,0.896c0.207,0.383,0.358,0.876,0.454,1.481
			c0.287-0.876,0.748-1.585,1.385-2.126s1.434-0.813,2.389-0.813c0.59,0,1.104,0.076,1.541,0.228s0.801,0.418,1.087,0.8
			s0.497,0.899,0.633,1.553s0.203,1.48,0.203,2.484v5.995c0.541,0.096,1.066,0.286,1.577,0.573v0.597h-5.137v-0.597
			c0.479-0.255,0.947-0.446,1.41-0.573v-5.947c0-0.574-0.028-1.083-0.084-1.529c-0.057-0.445-0.164-0.824-0.322-1.135
			c-0.16-0.311-0.383-0.549-0.669-0.716c-0.286-0.168-0.669-0.251-1.146-0.251c-0.765,0-1.358,0.263-1.779,0.788
			c-0.423,0.525-0.729,1.194-0.92,2.006v6.784c0.558,0.159,1.075,0.351,1.553,0.573V182.485z"/>
		<path fill="#294E57" d="M268.215,182.485h-5.111v-0.597c0.158-0.096,0.354-0.195,0.584-0.299s0.506-0.194,0.824-0.274v-5.518
			c0-0.637-0.027-1.21-0.084-1.72c-0.055-0.51-0.158-0.936-0.31-1.278c-0.151-0.342-0.37-0.604-0.657-0.788
			c-0.287-0.183-0.66-0.274-1.123-0.274c-0.35,0-0.672,0.071-0.967,0.215s-0.558,0.334-0.788,0.573
			c-0.231,0.238-0.431,0.51-0.597,0.812c-0.168,0.303-0.299,0.621-0.395,0.956v7.022c0.254,0.08,0.497,0.163,0.729,0.251
			c0.23,0.087,0.457,0.194,0.681,0.322v0.597h-5.136v-0.597c0.223-0.111,0.47-0.215,0.74-0.311c0.271-0.096,0.55-0.183,0.836-0.263
			v-9.388l-1.576-0.19v-0.621c0.51-0.223,1.031-0.402,1.564-0.538c0.533-0.135,1.055-0.242,1.564-0.322h0.598v2.699h0.023
			c0.255-0.748,0.689-1.385,1.303-1.911c0.612-0.525,1.373-0.788,2.28-0.788c0.382,0,0.749,0.04,1.099,0.12
			c0.35,0.079,0.677,0.227,0.979,0.441c0.302,0.215,0.558,0.514,0.765,0.896c0.207,0.383,0.357,0.876,0.453,1.481
			c0.287-0.876,0.748-1.585,1.386-2.126c0.637-0.541,1.433-0.813,2.389-0.813c0.589,0,1.103,0.076,1.54,0.228
			c0.438,0.151,0.801,0.418,1.088,0.8c0.286,0.382,0.497,0.899,0.633,1.553c0.135,0.653,0.203,1.48,0.203,2.484v5.995
			c0.541,0.096,1.066,0.286,1.576,0.573v0.597h-5.136v-0.597c0.478-0.255,0.947-0.446,1.409-0.573v-5.947
			c0-0.574-0.027-1.083-0.084-1.529c-0.056-0.445-0.163-0.824-0.322-1.135s-0.382-0.549-0.668-0.716
			c-0.287-0.168-0.67-0.251-1.146-0.251c-0.765,0-1.358,0.263-1.779,0.788c-0.423,0.525-0.729,1.194-0.92,2.006v6.784
			c0.557,0.159,1.074,0.351,1.553,0.573V182.485z"/>
		<path fill="#294E57" d="M287.189,180.813c-0.128,0.271-0.326,0.525-0.598,0.765c-0.271,0.238-0.581,0.446-0.932,0.621
			c-0.35,0.175-0.732,0.314-1.146,0.418s-0.836,0.155-1.266,0.155c-0.939,0-1.768-0.147-2.484-0.442
			c-0.717-0.294-1.313-0.716-1.791-1.266c-0.479-0.55-0.84-1.206-1.087-1.971s-0.37-1.624-0.37-2.579
			c0-2.039,0.469-3.591,1.409-4.658c0.939-1.066,2.269-1.601,3.989-1.601c0.557,0,1.105,0.076,1.647,0.228s1.022,0.402,1.445,0.752
			c0.422,0.351,0.765,0.816,1.026,1.397c0.264,0.581,0.395,1.302,0.395,2.161c0,0.271-0.012,0.546-0.035,0.824
			c-0.024,0.279-0.068,0.578-0.132,0.896h-7.452c0,0.668,0.084,1.294,0.25,1.875c0.168,0.581,0.418,1.086,0.753,1.517
			c0.335,0.43,0.757,0.769,1.267,1.015c0.509,0.247,1.105,0.37,1.791,0.37c0.557,0,1.123-0.079,1.695-0.238
			c0.574-0.159,1.004-0.366,1.29-0.621L287.189,180.813z M282.818,171.306c-0.908,0-1.601,0.308-2.078,0.92
			c-0.479,0.613-0.765,1.692-0.86,3.236h5.255c0.016-0.143,0.027-0.282,0.036-0.418c0.008-0.135,0.012-0.267,0.012-0.394
			c0-1.02-0.19-1.831-0.573-2.437C284.228,171.609,283.631,171.306,282.818,171.306z"/>
		<path fill="#294E57" d="M295.252,172.333c-0.175,0.096-0.394,0.291-0.656,0.585c-0.263,0.295-0.498,0.729-0.705,1.302v7.095
			c0.318,0.032,0.637,0.092,0.955,0.179c0.318,0.088,0.637,0.22,0.956,0.395v0.597h-5.638v-0.597
			c0.287-0.159,0.559-0.278,0.813-0.358c0.255-0.08,0.51-0.151,0.765-0.215v-9.388l-1.577-0.19v-0.621
			c0.51-0.223,1.035-0.402,1.577-0.538c0.541-0.135,1.059-0.242,1.553-0.322h0.597v2.532h0.096c0.144-0.318,0.347-0.637,0.609-0.955
			s0.564-0.605,0.908-0.86c0.342-0.255,0.716-0.449,1.122-0.585c0.405-0.136,0.823-0.18,1.254-0.132
			c0.111,0.207,0.211,0.435,0.298,0.681c0.088,0.247,0.172,0.506,0.252,0.776v0.621H295.252z"/>
	</g>
	<g>
		<g>
			
				<line fill="none" stroke="#6B622C" stroke-width="2" stroke-miterlimit="10" x1="146.344" y1="44.654" x2="146.344" y2="74.845"/>
			<g>
				<polygon fill="#6B622C" points="143.672,69.879 144.462,69.592 146.344,74.763 148.226,69.592 149.015,69.879 146.344,77.218 
									"/>
			</g>
		</g>
	</g>
	<g>
		<g>
			<line fill="none" stroke="#294E57" stroke-width="2" stroke-miterlimit="10" x1="156.816" y1="162.5" x2="156.816" y2="128.31"/>
			<g>
				<polygon fill="#294E57" points="159.488,133.275 158.698,133.562 156.816,128.392 154.935,133.562 154.146,133.275 
					156.816,125.936 				"/>
			</g>
		</g>
	</g>
</g>
<g id="Layer_4" display="none">
	<rect x="-23.73" y="-21.963" display="inline" width="181.552" height="62"/>
	<rect x="123.27" y="166.037" display="inline" width="181.552" height="62"/>
</g>
<g id="Layer_1" display="none">
	
		<text transform="matrix(1 0 0 1 -152.7305 117.189)" display="inline" font-family="'PTSerif-Regular'" font-size="81.9404" letter-spacing="4">x</text>
	
		<text transform="matrix(0.583 0 0 0.583 -105.3691 144.4751)" display="inline" font-family="'PTSerif-Regular'" font-size="81.9404" letter-spacing="3.431">1</text>
	
		<text transform="matrix(1 0 0 1 -77.0889 117.189)" display="inline" font-family="'PTSerif-Regular'" font-size="81.9404" letter-spacing="4">, x</text>
	
		<text transform="matrix(0.583 0 0 0.583 23.041 144.4751)" display="inline" font-family="'PTSerif-Regular'" font-size="81.9404" letter-spacing="3.431">2</text>
	
		<text transform="matrix(1 0 0 1 51.3203 117.189)" display="inline" font-family="'PTSerif-Regular'" font-size="81.9404" letter-spacing="4">, x</text>
	
		<text transform="matrix(0.583 0 0 0.583 151.4502 144.4751)" display="inline" font-family="'PTSerif-Regular'" font-size="81.9404" letter-spacing="3.431">3</text>
	
		<text transform="matrix(1 0 0 1 179.7305 117.189)" display="inline" font-family="'PTSerif-Regular'" font-size="81.9404" letter-spacing="4">, ... , x</text>
	
		<text transform="matrix(0.583 0 0 0.583 440.46 144.4751)" display="inline" font-family="'PTSerif-Regular'" font-size="81.9404" letter-spacing="3.431">n</text>
</g>
<g id="Layer_1_copy">
	<g>
		<path d="M11.554,98.938l6.473,8.973c0.383,0.137,0.758,0.28,1.127,0.43c0.369,0.15,0.717,0.335,1.045,0.553v1.024h-8.399v-0.983
			c0.383-0.219,0.738-0.416,1.065-0.594c0.328-0.177,0.656-0.321,0.983-0.43L9.3,101.192l-4.588,6.719
			c0.382,0.137,0.737,0.287,1.065,0.451c0.328,0.164,0.656,0.342,0.983,0.533v1.024h-7.006v-1.024
			c0.765-0.464,1.529-0.792,2.294-0.983l6.104-8.153l-6.146-8.275c-0.383-0.137-0.731-0.28-1.044-0.431
			C0.648,90.902,0.328,90.717,0,90.499v-1.065h8.235v1.024c-0.328,0.219-0.649,0.417-0.963,0.594
			c-0.314,0.178-0.663,0.321-1.044,0.431l4.261,6.146l4.179-6.146c-0.929-0.301-1.612-0.628-2.048-0.983v-1.065h6.842v1.065
			c-0.52,0.355-1.284,0.683-2.295,0.983L11.554,98.938z"/>
		<path d="M32.549,123.561h-6.975v-0.692c0.398-0.175,0.8-0.33,1.207-0.466c0.406-0.135,0.815-0.251,1.229-0.347v-11.728
			l0.096-1.409c-0.446,0.175-0.907,0.299-1.385,0.37c-0.478,0.072-0.971,0.1-1.481,0.084l-0.119-0.573
			c0.732-0.239,1.488-0.538,2.269-0.896c0.78-0.358,1.504-0.808,2.173-1.35h0.598v15.501c0.397,0.096,0.796,0.212,1.194,0.347
			c0.398,0.136,0.796,0.291,1.194,0.466V123.561z"/>
		<path d="M36.664,116.023c0.519-0.191,1.01-0.485,1.475-0.881c0.464-0.396,0.867-0.84,1.208-1.332
			c0.341-0.491,0.601-1.031,0.778-1.618c0.178-0.587,0.239-1.167,0.185-1.741c-0.328-0.301-0.765-0.601-1.311-0.901
			c-0.546-0.3-1.024-0.519-1.434-0.655c-0.137-0.519-0.144-1.024-0.021-1.516c0.123-0.492,0.308-0.929,0.553-1.312
			c0.246-0.382,0.526-0.689,0.84-0.922c0.314-0.231,0.621-0.361,0.922-0.389c0.956,0.137,1.795,0.56,2.52,1.27
			c0.723,0.711,1.085,1.776,1.085,3.196c0,0.764-0.137,1.563-0.41,2.397c-0.273,0.833-0.67,1.618-1.188,2.355
			c-0.519,0.737-1.147,1.399-1.885,1.987c-0.737,0.587-1.57,1.017-2.499,1.291L36.664,116.023z"/>
		<path d="M73.168,98.938l6.474,8.973c0.382,0.137,0.758,0.28,1.126,0.43c0.369,0.15,0.717,0.335,1.045,0.553v1.024h-8.399v-0.983
			c0.382-0.219,0.737-0.416,1.065-0.594c0.328-0.177,0.656-0.321,0.983-0.43l-4.548-6.719l-4.588,6.719
			c0.382,0.137,0.737,0.287,1.065,0.451c0.328,0.164,0.656,0.342,0.983,0.533v1.024h-7.006v-1.024
			c0.764-0.464,1.529-0.792,2.294-0.983l6.104-8.153l-6.146-8.275c-0.383-0.137-0.731-0.28-1.045-0.431
			c-0.314-0.149-0.635-0.334-0.962-0.553v-1.065h8.235v1.024c-0.328,0.219-0.649,0.417-0.963,0.594
			c-0.314,0.178-0.663,0.321-1.045,0.431l4.261,6.146l4.179-6.146c-0.929-0.301-1.612-0.628-2.048-0.983v-1.065h6.842v1.065
			c-0.519,0.355-1.284,0.683-2.294,0.983L73.168,98.938z"/>
		<path d="M88.283,111.499h-0.597c-0.175-0.461-0.354-1.003-0.538-1.625c-0.183-0.621-0.338-1.21-0.465-1.768
			c0.557-0.478,1.226-0.855,2.006-1.134c0.78-0.278,1.624-0.418,2.532-0.418c0.796,0,1.481,0.112,2.054,0.334
			c0.573,0.223,1.047,0.525,1.421,0.908s0.649,0.824,0.824,1.326c0.175,0.501,0.263,1.023,0.263,1.564
			c0,0.892-0.207,1.808-0.621,2.747s-0.928,1.851-1.541,2.734c-0.613,0.884-1.278,1.716-1.994,2.496
			c-0.717,0.78-1.378,1.465-1.983,2.055l-1.003,0.931v0.096l1.337-0.144h4.108l1.17-2.675h0.597
			c0.032,0.351,0.063,0.733,0.096,1.146c0.032,0.415,0.06,0.833,0.083,1.254c0.024,0.422,0.043,0.829,0.06,1.219
			c0.016,0.39,0.024,0.729,0.024,1.015h-9.865v-0.764c0.35-0.366,0.776-0.812,1.278-1.337s1.023-1.106,1.564-1.744
			c0.542-0.636,1.079-1.313,1.612-2.03c0.533-0.716,1.007-1.445,1.421-2.185c0.414-0.741,0.752-1.477,1.015-2.209
			s0.394-1.433,0.394-2.102c0-0.461-0.06-0.899-0.179-1.314c-0.12-0.414-0.298-0.776-0.538-1.086
			c-0.239-0.311-0.529-0.553-0.872-0.729c-0.343-0.175-0.737-0.263-1.182-0.263c-0.334,0-0.629,0.024-0.884,0.072
			c-0.255,0.048-0.534,0.119-0.836,0.215L88.283,111.499z"/>
		<path d="M100.388,116.023c0.519-0.191,1.01-0.485,1.475-0.881c0.464-0.396,0.867-0.84,1.208-1.332
			c0.341-0.491,0.601-1.031,0.778-1.618c0.178-0.587,0.239-1.167,0.185-1.741c-0.328-0.301-0.765-0.601-1.311-0.901
			c-0.547-0.3-1.024-0.519-1.434-0.655c-0.137-0.519-0.143-1.024-0.021-1.516c0.123-0.492,0.308-0.929,0.553-1.312
			c0.246-0.382,0.525-0.689,0.84-0.922c0.314-0.231,0.621-0.361,0.922-0.389c0.956,0.137,1.795,0.56,2.52,1.27
			c0.724,0.711,1.086,1.776,1.086,3.196c0,0.764-0.137,1.563-0.41,2.397c-0.273,0.833-0.67,1.618-1.188,2.355
			c-0.519,0.737-1.147,1.399-1.884,1.987c-0.738,0.587-1.571,1.017-2.5,1.291L100.388,116.023z"/>
		<path d="M136.892,98.938l6.474,8.973c0.382,0.137,0.758,0.28,1.126,0.43c0.369,0.15,0.717,0.335,1.045,0.553v1.024h-8.399v-0.983
			c0.382-0.219,0.737-0.416,1.065-0.594c0.328-0.177,0.656-0.321,0.983-0.43l-4.548-6.719l-4.588,6.719
			c0.382,0.137,0.737,0.287,1.065,0.451c0.328,0.164,0.656,0.342,0.983,0.533v1.024h-7.006v-1.024
			c0.764-0.464,1.529-0.792,2.294-0.983l6.104-8.153l-6.146-8.275c-0.383-0.137-0.731-0.28-1.045-0.431
			c-0.314-0.149-0.635-0.334-0.962-0.553v-1.065h8.235v1.024c-0.328,0.219-0.649,0.417-0.963,0.594
			c-0.314,0.178-0.663,0.321-1.045,0.431l4.261,6.146l4.179-6.146c-0.929-0.301-1.612-0.628-2.048-0.983v-1.065h6.842v1.065
			c-0.519,0.355-1.284,0.683-2.294,0.983L136.892,98.938z"/>
		<path d="M154.793,122.725c0.446,0,0.86-0.099,1.242-0.298c0.382-0.199,0.716-0.469,1.003-0.812
			c0.287-0.342,0.514-0.736,0.681-1.183c0.167-0.445,0.251-0.915,0.251-1.409c0-0.589-0.092-1.106-0.275-1.553
			c-0.183-0.445-0.434-0.815-0.752-1.11c-0.319-0.295-0.689-0.518-1.111-0.669c-0.422-0.151-0.88-0.227-1.374-0.227h-1.553v-0.646
			l4.013-5.374l0.812-0.836v-0.096l-1.29,0.144h-4.037l-0.932,2.437h-0.597c-0.063-0.335-0.124-0.693-0.179-1.075
			c-0.056-0.382-0.108-0.76-0.155-1.135c-0.048-0.374-0.088-0.736-0.12-1.086c-0.032-0.35-0.048-0.669-0.048-0.956h9.339v0.74
			l-3.989,5.327l-1.027,1.051v0.048l0.812-0.167c0.749,0.032,1.417,0.175,2.007,0.43c0.589,0.255,1.086,0.593,1.493,1.015
			c0.406,0.422,0.716,0.916,0.932,1.481c0.215,0.565,0.322,1.182,0.322,1.851c0,0.797-0.159,1.517-0.478,2.162
			c-0.319,0.645-0.745,1.194-1.278,1.648c-0.534,0.454-1.146,0.804-1.839,1.051c-0.693,0.246-1.421,0.37-2.186,0.37
			c-0.367,0-0.756-0.028-1.17-0.084s-0.82-0.14-1.218-0.251c-0.398-0.111-0.769-0.238-1.11-0.382
			c-0.343-0.144-0.633-0.311-0.872-0.502l0.669-2.149h0.478c0.096,0.111,0.227,0.255,0.394,0.43c0.167,0.176,0.342,0.358,0.525,0.55
			c0.183,0.191,0.362,0.382,0.538,0.573c0.175,0.191,0.326,0.358,0.454,0.501c0.159,0.032,0.366,0.072,0.621,0.12
			S154.379,122.725,154.793,122.725z"/>
		<path d="M163.902,116.023c0.519-0.191,1.01-0.485,1.475-0.881c0.465-0.396,0.867-0.84,1.209-1.332
			c0.342-0.491,0.601-1.031,0.778-1.618c0.178-0.587,0.239-1.167,0.185-1.741c-0.328-0.301-0.766-0.601-1.311-0.901
			c-0.547-0.3-1.025-0.519-1.435-0.655c-0.137-0.519-0.144-1.024-0.021-1.516c0.123-0.492,0.308-0.929,0.553-1.312
			c0.246-0.382,0.525-0.689,0.84-0.922c0.314-0.231,0.621-0.361,0.922-0.389c0.956,0.137,1.796,0.56,2.52,1.27
			c0.725,0.711,1.086,1.776,1.086,3.196c0,0.764-0.137,1.563-0.409,2.397c-0.273,0.833-0.67,1.618-1.188,2.355
			c-0.52,0.737-1.146,1.399-1.885,1.987c-0.737,0.587-1.57,1.017-2.499,1.291L163.902,116.023z"/>
		<path d="M191.105,107.583c0-0.82,0.26-1.475,0.779-1.966c0.519-0.492,1.188-0.738,2.008-0.738c0.846,0,1.529,0.246,2.048,0.738
			c0.519,0.491,0.778,1.146,0.778,1.966c0,0.792-0.26,1.434-0.778,1.925c-0.519,0.492-1.202,0.738-2.048,0.738
			c-0.82,0-1.489-0.246-2.008-0.738C191.365,109.017,191.105,108.375,191.105,107.583z"/>
		<path d="M203.277,107.583c0-0.82,0.26-1.475,0.779-1.966c0.519-0.492,1.188-0.738,2.008-0.738c0.846,0,1.529,0.246,2.048,0.738
			c0.519,0.491,0.778,1.146,0.778,1.966c0,0.792-0.26,1.434-0.778,1.925c-0.519,0.492-1.202,0.738-2.048,0.738
			c-0.82,0-1.489-0.246-2.008-0.738C203.537,109.017,203.277,108.375,203.277,107.583z"/>
		<path d="M215.449,107.583c0-0.82,0.26-1.475,0.779-1.966c0.519-0.492,1.188-0.738,2.008-0.738c0.846,0,1.529,0.246,2.048,0.738
			c0.519,0.491,0.778,1.146,0.778,1.966c0,0.792-0.26,1.434-0.778,1.925c-0.519,0.492-1.202,0.738-2.048,0.738
			c-0.82,0-1.489-0.246-2.008-0.738C215.709,109.017,215.449,108.375,215.449,107.583z"/>
		<path d="M240.852,116.023c0.518-0.191,1.01-0.485,1.475-0.881c0.464-0.396,0.867-0.84,1.209-1.332
			c0.341-0.491,0.6-1.031,0.777-1.618c0.178-0.587,0.239-1.167,0.186-1.741c-0.328-0.301-0.766-0.601-1.312-0.901
			c-0.547-0.3-1.024-0.519-1.435-0.655c-0.137-0.519-0.143-1.024-0.02-1.516c0.123-0.492,0.307-0.929,0.553-1.312
			c0.246-0.382,0.525-0.689,0.84-0.922c0.314-0.231,0.621-0.361,0.922-0.389c0.955,0.137,1.795,0.56,2.52,1.27
			c0.724,0.711,1.086,1.776,1.086,3.196c0,0.764-0.137,1.563-0.41,2.397c-0.273,0.833-0.67,1.618-1.188,2.355
			c-0.52,0.737-1.147,1.399-1.885,1.987c-0.738,0.587-1.571,1.017-2.5,1.291L240.852,116.023z"/>
		<path d="M277.355,98.938l6.473,8.973c0.383,0.137,0.758,0.28,1.127,0.43c0.369,0.15,0.717,0.335,1.045,0.553v1.024h-8.398v-0.983
			c0.381-0.219,0.736-0.416,1.064-0.594c0.328-0.177,0.656-0.321,0.983-0.43l-4.548-6.719l-4.588,6.719
			c0.382,0.137,0.736,0.287,1.064,0.451s0.656,0.342,0.983,0.533v1.024h-7.006v-1.024c0.765-0.464,1.529-0.792,2.294-0.983
			l6.105-8.153l-6.146-8.275c-0.383-0.137-0.73-0.28-1.045-0.431c-0.313-0.149-0.635-0.334-0.962-0.553v-1.065h8.235v1.024
			c-0.328,0.219-0.65,0.417-0.963,0.594c-0.314,0.178-0.663,0.321-1.045,0.431l4.261,6.146l4.179-6.146
			c-0.929-0.301-1.611-0.628-2.049-0.983v-1.065h6.842v1.065c-0.519,0.355-1.283,0.683-2.293,0.983L277.355,98.938z"/>
		<path d="M303.084,123.561h-5.136v-0.597c0.431-0.223,0.899-0.414,1.409-0.573v-5.661c0-1.21-0.176-2.165-0.525-2.866
			c-0.351-0.701-0.987-1.051-1.91-1.051c-0.398,0-0.77,0.071-1.111,0.215c-0.343,0.144-0.645,0.338-0.908,0.585
			c-0.262,0.247-0.489,0.525-0.68,0.836c-0.191,0.311-0.344,0.633-0.454,0.968v6.975c0.493,0.095,0.971,0.286,1.433,0.573v0.597
			h-5.159v-0.597c0.397-0.207,0.923-0.398,1.577-0.573v-9.387l-1.577-0.191v-0.621c0.414-0.175,0.892-0.334,1.434-0.478
			c0.541-0.144,1.106-0.271,1.696-0.383h0.597v2.676h0.024c0.334-0.732,0.814-1.362,1.444-1.887c0.629-0.526,1.39-0.789,2.281-0.789
			c0.637,0,1.206,0.076,1.708,0.228s0.92,0.418,1.254,0.8c0.334,0.382,0.589,0.896,0.764,1.541c0.176,0.645,0.264,1.461,0.264,2.448
			v6.043c0.637,0.111,1.162,0.303,1.576,0.573V123.561z"/>
	</g>
</g>
</svg>
