<?xml version="1.0" encoding="utf-8"?>
<!-- Generator: Adobe Illustrator 16.0.0, SVG Export Plug-In . SVG Version: 6.00 Build 0)  -->
<!DOCTYPE svg PUBLIC "-//W3C//DTD SVG 1.1//EN" "http://www.w3.org/Graphics/SVG/1.1/DTD/svg11.dtd">
<svg version="1.1" id="Layer_1" xmlns="http://www.w3.org/2000/svg" xmlns:xlink="http://www.w3.org/1999/xlink" x="0px" y="0px"
	 width="330.495px" height="120.502px" viewBox="0 0 330.495 120.502" enable-background="new 0 0 330.495 120.502"
	 xml:space="preserve">
<g>
	<g>
		<path fill="#F9DF6E" d="M50.5,72.442c0,8.25-6.75,15-15,15H15c-8.25,0-15-6.75-15-15V41.238c0-8.25,6.75-15,15-15h20.5
			c8.25,0,15,6.75,15,15V72.442z"/>
	</g>
	<g>
		<path fill="#82CEE1" d="M156,72.442c0,8.25-6.75,15-15,15h-40c-8.25,0-15-6.75-15-15V41.238c0-8.25,6.75-15,15-15h40
			c8.25,0,15,6.75,15,15V72.442z"/>
	</g>
	<g>
		<path fill="#F26F83" d="M330.495,72.442c0,8.25-6.75,15-15,15H193.5c-8.25,0-15-6.75-15-15V41.238c0-8.25,6.75-15,15-15h121.995
			c8.25,0,15,6.75,15,15V72.442z"/>
	</g>
	<g>
		<path fill="#294E57" d="M3.235,117.368H0v-0.422c0.35-0.156,0.699-0.272,1.049-0.35l3.688-9.605h0.423l3.688,9.605
			c0.194,0.039,0.387,0.082,0.576,0.131s0.366,0.121,0.531,0.219v0.422h-3.76v-0.422c0.194-0.078,0.394-0.146,0.598-0.205
			c0.204-0.058,0.402-0.105,0.598-0.145l-0.986-2.668H2.938l-0.956,2.668c0.407,0.058,0.825,0.174,1.253,0.35V117.368z
			 M3.229,113.171h2.929l-1.146-3.09l-0.275-1.254H4.707l-0.362,1.283L3.229,113.171z"/>
		<path fill="#294E57" d="M19.608,117.368h-3.133v-0.363c0.262-0.137,0.549-0.253,0.859-0.351V113.2c0-0.738-0.107-1.321-0.32-1.749
			c-0.214-0.427-0.603-0.642-1.166-0.642c-0.243,0-0.469,0.044-0.678,0.131c-0.209,0.088-0.394,0.207-0.554,0.357
			c-0.161,0.15-0.299,0.32-0.416,0.51c-0.116,0.189-0.209,0.387-0.276,0.591v4.256c0.301,0.059,0.592,0.175,0.874,0.351v0.363H11.65
			v-0.363c0.243-0.127,0.563-0.243,0.962-0.351v-5.728l-0.962-0.117v-0.379c0.253-0.106,0.545-0.203,0.875-0.291
			s0.675-0.166,1.035-0.233h0.364v1.632h0.015c0.204-0.446,0.497-0.83,0.882-1.15c0.384-0.321,0.848-0.481,1.392-0.481
			c0.389,0,0.736,0.046,1.042,0.139s0.562,0.255,0.766,0.488s0.359,0.546,0.466,0.94c0.107,0.393,0.16,0.891,0.16,1.493v3.688
			c0.389,0.068,0.71,0.185,0.962,0.351V117.368z"/>
		<path fill="#294E57" d="M20.595,110.448c0.369-0.242,0.758-0.412,1.166-0.513v-1.239c0.126-0.106,0.274-0.201,0.444-0.284
			c0.17-0.082,0.337-0.163,0.503-0.24h0.364v1.909h2.187v0.758h-2.187v4.205c0,0.581,0.092,0.992,0.276,1.233
			s0.462,0.362,0.831,0.362c0.175,0,0.394-0.012,0.656-0.036c0.262-0.024,0.485-0.07,0.67-0.139l0.103,0.219
			c-0.078,0.087-0.188,0.181-0.328,0.276c-0.141,0.098-0.302,0.189-0.481,0.277s-0.376,0.16-0.59,0.219s-0.433,0.088-0.656,0.088
			c-0.583,0-1.027-0.165-1.333-0.494c-0.307-0.328-0.459-0.86-0.459-1.596v-4.615h-1.166V110.448z"/>
		<path fill="#294E57" d="M32.706,115.46c0,0.213,0.005,0.398,0.015,0.553c0.01,0.156,0.02,0.321,0.029,0.496l1.006,0.146v0.306
			c-0.243,0.127-0.513,0.238-0.81,0.336c-0.296,0.097-0.58,0.17-0.853,0.219h-0.364c-0.098-0.224-0.155-0.469-0.175-0.736
			s-0.034-0.561-0.044-0.882h-0.073c-0.038,0.194-0.114,0.392-0.226,0.591s-0.258,0.377-0.438,0.531
			c-0.18,0.156-0.391,0.282-0.634,0.379c-0.243,0.098-0.52,0.146-0.831,0.146c-0.593,0-1.076-0.18-1.45-0.539
			s-0.561-0.832-0.561-1.414c0-0.447,0.09-0.814,0.27-1.101s0.444-0.513,0.794-0.678c0.351-0.165,0.782-0.284,1.298-0.357
			c0.515-0.073,1.112-0.128,1.792-0.167c0.039-0.418,0.052-0.795,0.037-1.13s-0.068-0.622-0.16-0.86
			c-0.093-0.238-0.229-0.422-0.408-0.554c-0.181-0.131-0.416-0.196-0.707-0.196c-0.137,0-0.289,0.007-0.459,0.021
			c-0.171,0.015-0.338,0.057-0.503,0.124l-0.686,1.749h-0.379c-0.097-0.291-0.182-0.593-0.255-0.904
			c-0.073-0.311-0.119-0.616-0.139-0.918c0.369-0.223,0.78-0.398,1.231-0.524c0.452-0.126,0.955-0.189,1.509-0.189
			c0.496,0,0.892,0.071,1.188,0.212c0.297,0.141,0.522,0.322,0.678,0.546c0.156,0.224,0.258,0.472,0.307,0.743
			c0.049,0.272,0.073,0.545,0.073,0.816c0,0.583-0.013,1.145-0.037,1.684S32.706,114.964,32.706,115.46z M29.893,116.64
			c0.243,0,0.457-0.049,0.642-0.146s0.34-0.214,0.467-0.35c0.126-0.136,0.228-0.274,0.306-0.415s0.131-0.26,0.16-0.357v-1.531
			c-0.563,0-1.025,0.029-1.385,0.088s-0.641,0.15-0.845,0.277c-0.204,0.126-0.345,0.284-0.423,0.474s-0.116,0.405-0.116,0.648
			c0,0.418,0.106,0.741,0.32,0.97S29.523,116.64,29.893,116.64z"/>
		<path fill="#294E57" d="M38.848,117.368h-3.235v-0.363c0.32-0.156,0.641-0.272,0.962-0.351v-9.226l-1.108-0.117v-0.379
			c0.253-0.116,0.568-0.219,0.948-0.306c0.379-0.087,0.748-0.161,1.107-0.219h0.364v10.246c0.32,0.078,0.642,0.194,0.962,0.351
			V117.368z"/>
		<path fill="#294E57" d="M44.039,117.368h-3.235v-0.363c0.32-0.156,0.641-0.272,0.962-0.351v-9.226l-1.108-0.117v-0.379
			c0.253-0.116,0.568-0.219,0.948-0.306c0.379-0.087,0.748-0.161,1.107-0.219h0.364v10.246c0.32,0.078,0.642,0.194,0.962,0.351
			V117.368z"/>
		<path fill="#294E57" d="M58.162,117.368h-3.148v-0.363c0.233-0.127,0.524-0.243,0.875-0.351v-3.41
			c0-0.759-0.107-1.353-0.321-1.786c-0.214-0.432-0.603-0.648-1.166-0.648c-0.253,0-0.48,0.047-0.685,0.139
			c-0.204,0.093-0.389,0.211-0.554,0.357c-0.166,0.146-0.307,0.313-0.423,0.502c-0.117,0.189-0.204,0.387-0.263,0.591v4.256
			c0.155,0.039,0.304,0.083,0.444,0.132c0.142,0.049,0.279,0.121,0.416,0.219v0.363h-3.134v-0.363
			c0.301-0.156,0.622-0.272,0.962-0.351v-9.226l-1.107-0.117v-0.379c0.281-0.116,0.609-0.219,0.983-0.306s0.731-0.161,1.071-0.219
			h0.364v5.146h0.015c0.204-0.457,0.498-0.846,0.882-1.166c0.384-0.321,0.848-0.481,1.392-0.481c0.389,0,0.736,0.046,1.043,0.139
			c0.306,0.093,0.561,0.255,0.765,0.488s0.359,0.546,0.467,0.94c0.106,0.393,0.16,0.891,0.16,1.493v3.688
			c0.165,0.039,0.33,0.083,0.495,0.132s0.321,0.121,0.467,0.219V117.368z"/>
		<path fill="#294E57" d="M65.181,115.46c0,0.213,0.005,0.398,0.015,0.553c0.01,0.156,0.02,0.321,0.029,0.496l1.006,0.146v0.306
			c-0.243,0.127-0.513,0.238-0.809,0.336c-0.297,0.097-0.581,0.17-0.853,0.219h-0.365c-0.097-0.224-0.155-0.469-0.175-0.736
			s-0.034-0.561-0.043-0.882h-0.073c-0.039,0.194-0.114,0.392-0.226,0.591c-0.112,0.199-0.258,0.377-0.438,0.531
			c-0.18,0.156-0.392,0.282-0.634,0.379c-0.243,0.098-0.521,0.146-0.831,0.146c-0.593,0-1.076-0.18-1.45-0.539
			s-0.562-0.832-0.562-1.414c0-0.447,0.09-0.814,0.27-1.101s0.445-0.513,0.795-0.678s0.782-0.284,1.297-0.357
			s1.112-0.128,1.793-0.167c0.039-0.418,0.051-0.795,0.036-1.13s-0.068-0.622-0.16-0.86c-0.093-0.238-0.229-0.422-0.408-0.554
			c-0.18-0.131-0.415-0.196-0.707-0.196c-0.136,0-0.289,0.007-0.459,0.021s-0.338,0.057-0.503,0.124l-0.685,1.749h-0.379
			c-0.098-0.291-0.183-0.593-0.255-0.904c-0.073-0.311-0.119-0.616-0.139-0.918c0.369-0.223,0.779-0.398,1.231-0.524
			s0.954-0.189,1.509-0.189c0.495,0,0.891,0.071,1.188,0.212c0.296,0.141,0.522,0.322,0.678,0.546s0.258,0.472,0.306,0.743
			c0.049,0.272,0.073,0.545,0.073,0.816c0,0.583-0.013,1.145-0.036,1.684C65.193,114.446,65.181,114.964,65.181,115.46z
			 M62.368,116.64c0.243,0,0.456-0.049,0.642-0.146c0.185-0.097,0.34-0.214,0.466-0.35s0.229-0.274,0.307-0.415
			c0.077-0.141,0.131-0.26,0.16-0.357v-1.531c-0.563,0-1.025,0.029-1.385,0.088s-0.642,0.15-0.846,0.277
			c-0.204,0.126-0.345,0.284-0.423,0.474c-0.077,0.189-0.116,0.405-0.116,0.648c0,0.418,0.106,0.741,0.32,0.97
			S61.999,116.64,62.368,116.64z"/>
		<path fill="#294E57" d="M71.12,111.175c-0.106,0.058-0.24,0.177-0.4,0.356c-0.16,0.181-0.304,0.444-0.43,0.794v4.329
			c0.194,0.02,0.389,0.056,0.583,0.109s0.389,0.134,0.583,0.241v0.363h-3.44v-0.363c0.176-0.098,0.341-0.17,0.496-0.219
			s0.311-0.093,0.466-0.132v-5.728l-0.962-0.117v-0.379c0.312-0.136,0.632-0.245,0.962-0.328c0.331-0.082,0.646-0.147,0.948-0.196
			h0.364v1.545h0.058c0.088-0.194,0.212-0.389,0.372-0.583s0.345-0.369,0.554-0.525c0.209-0.154,0.438-0.273,0.686-0.356
			c0.247-0.083,0.502-0.109,0.765-0.08c0.068,0.126,0.129,0.265,0.183,0.415c0.053,0.15,0.104,0.309,0.152,0.475v0.379H71.12z"/>
		<path fill="#294E57" d="M80.442,116.349c-0.078,0.165-0.199,0.32-0.364,0.467c-0.165,0.145-0.354,0.271-0.568,0.379
			c-0.214,0.106-0.447,0.191-0.699,0.254c-0.253,0.063-0.511,0.096-0.772,0.096c-0.574,0-1.079-0.09-1.517-0.27
			c-0.437-0.18-0.801-0.438-1.093-0.773c-0.291-0.335-0.513-0.735-0.663-1.202c-0.15-0.466-0.226-0.991-0.226-1.573
			c0-1.244,0.286-2.191,0.859-2.843s1.385-0.977,2.435-0.977c0.34,0,0.675,0.046,1.005,0.139c0.331,0.093,0.625,0.245,0.882,0.459
			c0.258,0.214,0.467,0.498,0.627,0.853c0.16,0.355,0.24,0.795,0.24,1.318c0,0.166-0.007,0.334-0.021,0.504s-0.041,0.352-0.08,0.547
			h-4.548c0,0.407,0.052,0.789,0.153,1.144c0.103,0.354,0.255,0.663,0.459,0.925c0.204,0.264,0.462,0.47,0.772,0.62
			c0.312,0.151,0.676,0.226,1.094,0.226c0.34,0,0.685-0.049,1.034-0.146c0.351-0.097,0.612-0.224,0.787-0.379L80.442,116.349z
			 M77.775,110.548c-0.554,0-0.977,0.188-1.268,0.561c-0.292,0.375-0.467,1.033-0.525,1.975h3.207
			c0.009-0.087,0.017-0.172,0.021-0.254c0.005-0.083,0.008-0.163,0.008-0.241c0-0.622-0.117-1.117-0.351-1.486
			C78.636,110.732,78.271,110.548,77.775,110.548z"/>
		<path fill="#294E57" d="M85.453,111.175c-0.107,0.058-0.24,0.177-0.401,0.356c-0.16,0.181-0.304,0.444-0.43,0.794v4.329
			c0.194,0.02,0.389,0.056,0.583,0.109s0.389,0.134,0.583,0.241v0.363h-3.439v-0.363c0.175-0.098,0.34-0.17,0.495-0.219
			s0.312-0.093,0.467-0.132v-5.728l-0.962-0.117v-0.379c0.311-0.136,0.632-0.245,0.962-0.328c0.33-0.082,0.646-0.147,0.947-0.196
			h0.364v1.545h0.059c0.087-0.194,0.211-0.389,0.371-0.583c0.161-0.194,0.346-0.369,0.555-0.525
			c0.208-0.154,0.437-0.273,0.685-0.356s0.503-0.109,0.766-0.08c0.067,0.126,0.128,0.265,0.182,0.415s0.104,0.309,0.153,0.475v0.379
			H85.453z"/>
		<path fill="#294E57" d="M96.224,117.544l-2.842-6.734c-0.282-0.097-0.539-0.213-0.772-0.35v-0.379h3.061v0.364
			c-0.126,0.068-0.255,0.134-0.386,0.196c-0.132,0.064-0.279,0.119-0.445,0.168l1.685,4.387l0.291,0.904h0.028l0.218-0.918
			l1.554-4.373c-0.155-0.039-0.299-0.087-0.43-0.146c-0.132-0.058-0.255-0.126-0.372-0.204v-0.379h2.478v0.379
			c-0.097,0.068-0.216,0.131-0.356,0.189c-0.142,0.059-0.299,0.111-0.474,0.16l-2.58,6.559L96.224,117.544z"/>
		<path fill="#294E57" d="M105.141,117.368h-3.235v-0.363c0.146-0.078,0.296-0.145,0.451-0.197s0.326-0.104,0.511-0.153v-5.728
			l-0.962-0.117v-0.379c0.281-0.116,0.588-0.219,0.918-0.306s0.66-0.161,0.991-0.219h0.364v6.748
			c0.194,0.049,0.369,0.101,0.524,0.153s0.302,0.119,0.438,0.197V117.368z M102.59,107.604c0-0.263,0.085-0.472,0.255-0.627
			s0.396-0.233,0.678-0.233c0.282,0,0.506,0.078,0.671,0.233s0.248,0.364,0.248,0.627s-0.083,0.469-0.248,0.619
			c-0.165,0.151-0.389,0.226-0.671,0.226c-0.281,0-0.508-0.074-0.678-0.226C102.675,108.072,102.59,107.866,102.59,107.604z"/>
		<path fill="#294E57" d="M119.264,117.368h-3.148v-0.363c0.233-0.127,0.524-0.243,0.875-0.351v-3.41
			c0-0.759-0.107-1.353-0.321-1.786c-0.214-0.432-0.603-0.648-1.166-0.648c-0.253,0-0.48,0.047-0.685,0.139
			c-0.204,0.093-0.389,0.211-0.554,0.357c-0.166,0.146-0.307,0.313-0.423,0.502c-0.117,0.189-0.204,0.387-0.263,0.591v4.256
			c0.155,0.039,0.304,0.083,0.444,0.132c0.142,0.049,0.279,0.121,0.416,0.219v0.363h-3.134v-0.363
			c0.301-0.156,0.622-0.272,0.962-0.351v-9.226l-1.107-0.117v-0.379c0.281-0.116,0.609-0.219,0.983-0.306s0.731-0.161,1.071-0.219
			h0.364v5.146h0.015c0.204-0.457,0.498-0.846,0.882-1.166c0.384-0.321,0.848-0.481,1.392-0.481c0.389,0,0.736,0.046,1.043,0.139
			c0.306,0.093,0.561,0.255,0.765,0.488s0.359,0.546,0.467,0.94c0.106,0.393,0.16,0.891,0.16,1.493v3.688
			c0.165,0.039,0.33,0.083,0.495,0.132s0.321,0.121,0.467,0.219V117.368z"/>
		<path fill="#294E57" d="M126.282,115.46c0,0.213,0.005,0.398,0.015,0.553c0.01,0.156,0.02,0.321,0.029,0.496l1.006,0.146v0.306
			c-0.243,0.127-0.513,0.238-0.809,0.336c-0.297,0.097-0.581,0.17-0.853,0.219h-0.365c-0.097-0.224-0.155-0.469-0.175-0.736
			s-0.034-0.561-0.043-0.882h-0.073c-0.039,0.194-0.114,0.392-0.226,0.591c-0.112,0.199-0.258,0.377-0.438,0.531
			c-0.18,0.156-0.392,0.282-0.634,0.379c-0.243,0.098-0.521,0.146-0.831,0.146c-0.593,0-1.076-0.18-1.45-0.539
			s-0.562-0.832-0.562-1.414c0-0.447,0.09-0.814,0.27-1.101s0.445-0.513,0.795-0.678s0.782-0.284,1.297-0.357
			s1.112-0.128,1.793-0.167c0.039-0.418,0.051-0.795,0.036-1.13s-0.068-0.622-0.16-0.86c-0.093-0.238-0.229-0.422-0.408-0.554
			c-0.18-0.131-0.415-0.196-0.707-0.196c-0.136,0-0.289,0.007-0.459,0.021s-0.338,0.057-0.503,0.124l-0.685,1.749h-0.379
			c-0.098-0.291-0.183-0.593-0.255-0.904c-0.073-0.311-0.119-0.616-0.139-0.918c0.369-0.223,0.779-0.398,1.231-0.524
			s0.954-0.189,1.509-0.189c0.495,0,0.891,0.071,1.188,0.212c0.296,0.141,0.522,0.322,0.678,0.546s0.258,0.472,0.306,0.743
			c0.049,0.272,0.073,0.545,0.073,0.816c0,0.583-0.013,1.145-0.036,1.684C126.295,114.446,126.282,114.964,126.282,115.46z
			 M123.47,116.64c0.243,0,0.456-0.049,0.642-0.146c0.185-0.097,0.34-0.214,0.466-0.35s0.229-0.274,0.307-0.415
			c0.077-0.141,0.131-0.26,0.16-0.357v-1.531c-0.563,0-1.025,0.029-1.385,0.088s-0.642,0.15-0.846,0.277
			c-0.204,0.126-0.345,0.284-0.423,0.474c-0.077,0.189-0.116,0.405-0.116,0.648c0,0.418,0.106,0.741,0.32,0.97
			S123.101,116.64,123.47,116.64z"/>
		<path fill="#294E57" d="M132.222,111.175c-0.106,0.058-0.24,0.177-0.4,0.356c-0.16,0.181-0.304,0.444-0.43,0.794v4.329
			c0.194,0.02,0.389,0.056,0.583,0.109s0.389,0.134,0.583,0.241v0.363h-3.44v-0.363c0.176-0.098,0.341-0.17,0.496-0.219
			s0.311-0.093,0.466-0.132v-5.728l-0.962-0.117v-0.379c0.312-0.136,0.632-0.245,0.962-0.328c0.331-0.082,0.646-0.147,0.948-0.196
			h0.364v1.545h0.058c0.088-0.194,0.212-0.389,0.372-0.583s0.345-0.369,0.554-0.525c0.209-0.154,0.438-0.273,0.686-0.356
			c0.247-0.083,0.502-0.109,0.765-0.08c0.068,0.126,0.129,0.265,0.183,0.415c0.053,0.15,0.104,0.309,0.152,0.475v0.379H132.222z"/>
		<path fill="#294E57" d="M147.934,117.368H144.8v-0.363c0.263-0.137,0.549-0.253,0.86-0.351V113.2c0-0.738-0.107-1.321-0.321-1.749
			c-0.214-0.427-0.603-0.642-1.166-0.642c-0.243,0-0.469,0.044-0.678,0.131c-0.209,0.088-0.394,0.207-0.554,0.357
			s-0.299,0.32-0.415,0.51c-0.117,0.189-0.209,0.387-0.277,0.591v4.256c0.301,0.059,0.593,0.175,0.875,0.351v0.363h-3.148v-0.363
			c0.243-0.127,0.563-0.243,0.962-0.351v-5.728l-0.962-0.117v-0.379c0.253-0.106,0.544-0.203,0.874-0.291
			c0.331-0.088,0.676-0.166,1.035-0.233h0.364v1.632h0.015c0.204-0.446,0.498-0.83,0.882-1.15c0.384-0.321,0.848-0.481,1.392-0.481
			c0.389,0,0.736,0.046,1.043,0.139c0.306,0.093,0.561,0.255,0.765,0.488s0.359,0.546,0.467,0.94c0.106,0.393,0.16,0.891,0.16,1.493
			v3.688c0.389,0.068,0.709,0.185,0.962,0.351V117.368z"/>
		<path fill="#294E57" d="M154.945,115.46c0,0.213,0.005,0.398,0.015,0.553c0.01,0.156,0.02,0.321,0.029,0.496l1.006,0.146v0.306
			c-0.243,0.127-0.513,0.238-0.809,0.336c-0.297,0.097-0.581,0.17-0.853,0.219h-0.365c-0.097-0.224-0.155-0.469-0.175-0.736
			s-0.034-0.561-0.043-0.882h-0.073c-0.039,0.194-0.114,0.392-0.226,0.591c-0.112,0.199-0.258,0.377-0.438,0.531
			c-0.18,0.156-0.392,0.282-0.634,0.379c-0.243,0.098-0.521,0.146-0.831,0.146c-0.593,0-1.076-0.18-1.45-0.539
			s-0.562-0.832-0.562-1.414c0-0.447,0.09-0.814,0.27-1.101s0.445-0.513,0.795-0.678s0.782-0.284,1.297-0.357
			s1.112-0.128,1.793-0.167c0.039-0.418,0.051-0.795,0.036-1.13s-0.068-0.622-0.16-0.86c-0.093-0.238-0.229-0.422-0.408-0.554
			c-0.18-0.131-0.415-0.196-0.707-0.196c-0.136,0-0.289,0.007-0.459,0.021s-0.338,0.057-0.503,0.124l-0.685,1.749h-0.379
			c-0.098-0.291-0.183-0.593-0.255-0.904c-0.073-0.311-0.119-0.616-0.139-0.918c0.369-0.223,0.779-0.398,1.231-0.524
			s0.954-0.189,1.509-0.189c0.495,0,0.891,0.071,1.188,0.212c0.296,0.141,0.522,0.322,0.678,0.546s0.258,0.472,0.306,0.743
			c0.049,0.272,0.073,0.545,0.073,0.816c0,0.583-0.013,1.145-0.036,1.684C154.958,114.446,154.945,114.964,154.945,115.46z
			 M152.133,116.64c0.243,0,0.456-0.049,0.642-0.146c0.185-0.097,0.34-0.214,0.466-0.35s0.229-0.274,0.307-0.415
			c0.077-0.141,0.131-0.26,0.16-0.357v-1.531c-0.563,0-1.025,0.029-1.385,0.088s-0.642,0.15-0.846,0.277
			c-0.204,0.126-0.345,0.284-0.423,0.474c-0.077,0.189-0.116,0.405-0.116,0.648c0,0.418,0.106,0.741,0.32,0.97
			S151.764,116.64,152.133,116.64z M151.054,107.414c0-0.398,0.138-0.733,0.414-1.006c0.275-0.272,0.62-0.408,1.036-0.408
			c0.377,0,0.698,0.122,0.965,0.364c0.266,0.243,0.398,0.578,0.398,1.006c0,0.204-0.039,0.389-0.116,0.554s-0.179,0.306-0.305,0.423
			c-0.125,0.117-0.272,0.209-0.442,0.277c-0.169,0.068-0.34,0.102-0.515,0.102c-0.435,0-0.782-0.117-1.044-0.35
			C151.185,108.143,151.054,107.822,151.054,107.414z M151.813,107.385c0,0.253,0.065,0.44,0.196,0.562s0.279,0.182,0.444,0.182
			c0.194,0,0.353-0.056,0.474-0.168c0.122-0.111,0.183-0.289,0.183-0.531c0-0.263-0.059-0.467-0.175-0.612
			c-0.117-0.146-0.272-0.219-0.467-0.219c-0.233,0-0.4,0.073-0.503,0.219C151.863,106.962,151.813,107.151,151.813,107.385z"/>
	</g>
	<g>
		<path fill="#6B622C" d="M3.235,11.369H0v-0.423c0.35-0.155,0.699-0.272,1.049-0.35l3.688-9.605h0.423l3.688,9.605
			c0.194,0.039,0.387,0.082,0.576,0.131s0.366,0.122,0.531,0.219v0.423h-3.76v-0.423c0.194-0.078,0.394-0.146,0.598-0.204
			s0.402-0.106,0.598-0.146L6.403,7.929H2.938l-0.956,2.668c0.407,0.058,0.825,0.175,1.253,0.35V11.369z M3.229,7.171h2.929
			l-1.146-3.09L4.736,2.828H4.707L4.345,4.11L3.229,7.171z"/>
		<path fill="#6B622C" d="M19.608,11.369h-3.133v-0.364c0.262-0.137,0.549-0.253,0.859-0.351V7.2c0-0.738-0.107-1.321-0.32-1.749
			c-0.214-0.427-0.603-0.641-1.166-0.641c-0.243,0-0.469,0.043-0.678,0.131c-0.209,0.087-0.394,0.206-0.554,0.357
			c-0.161,0.15-0.299,0.32-0.416,0.51c-0.116,0.189-0.209,0.386-0.276,0.59v4.256c0.301,0.059,0.592,0.176,0.874,0.351v0.364H11.65
			v-0.364c0.243-0.127,0.563-0.243,0.962-0.351V4.927L11.65,4.811V4.432c0.253-0.107,0.545-0.204,0.875-0.292
			c0.33-0.087,0.675-0.165,1.035-0.233h0.364v1.633h0.015c0.204-0.447,0.497-0.831,0.882-1.151c0.384-0.321,0.848-0.481,1.392-0.481
			c0.389,0,0.736,0.047,1.042,0.139c0.306,0.093,0.562,0.255,0.766,0.488s0.359,0.547,0.466,0.94c0.107,0.394,0.16,0.892,0.16,1.493
			v3.688c0.389,0.068,0.71,0.186,0.962,0.351V11.369z"/>
		<path fill="#6B622C" d="M20.595,4.448c0.369-0.241,0.758-0.412,1.166-0.513V2.696c0.126-0.106,0.274-0.201,0.444-0.284
			c0.17-0.082,0.337-0.162,0.503-0.24h0.364v1.909h2.187v0.758h-2.187v4.206c0,0.58,0.092,0.991,0.276,1.232
			c0.185,0.242,0.462,0.363,0.831,0.363c0.175,0,0.394-0.013,0.656-0.037c0.262-0.024,0.485-0.07,0.67-0.139l0.103,0.219
			c-0.078,0.088-0.188,0.181-0.328,0.277s-0.302,0.189-0.481,0.276c-0.18,0.088-0.376,0.161-0.59,0.219
			c-0.214,0.059-0.433,0.088-0.656,0.088c-0.583,0-1.027-0.165-1.333-0.493c-0.307-0.329-0.459-0.861-0.459-1.597V4.839h-1.166
			V4.448z"/>
		<path fill="#6B622C" d="M32.706,9.46c0,0.214,0.005,0.398,0.015,0.554s0.02,0.32,0.029,0.495l1.006,0.146v0.307
			c-0.243,0.126-0.513,0.238-0.81,0.335c-0.296,0.097-0.58,0.17-0.853,0.219h-0.364c-0.098-0.224-0.155-0.469-0.175-0.736
			c-0.02-0.267-0.034-0.561-0.044-0.882h-0.073c-0.038,0.194-0.114,0.392-0.226,0.591s-0.258,0.377-0.438,0.532
			s-0.391,0.281-0.634,0.379c-0.243,0.097-0.52,0.146-0.831,0.146c-0.593,0-1.076-0.18-1.45-0.539s-0.561-0.831-0.561-1.414
			c0-0.447,0.09-0.813,0.27-1.101c0.18-0.286,0.444-0.513,0.794-0.678c0.351-0.165,0.782-0.284,1.298-0.357
			c0.515-0.072,1.112-0.128,1.792-0.167c0.039-0.418,0.052-0.795,0.037-1.13s-0.068-0.622-0.16-0.859
			c-0.093-0.238-0.229-0.423-0.408-0.555c-0.181-0.131-0.416-0.196-0.707-0.196c-0.137,0-0.289,0.007-0.459,0.021
			c-0.171,0.015-0.338,0.057-0.503,0.124l-0.686,1.749h-0.379c-0.097-0.291-0.182-0.593-0.255-0.903s-0.119-0.617-0.139-0.918
			c0.369-0.224,0.78-0.398,1.231-0.525c0.452-0.126,0.955-0.189,1.509-0.189c0.496,0,0.892,0.071,1.188,0.212
			c0.297,0.141,0.522,0.323,0.678,0.546c0.156,0.224,0.258,0.472,0.307,0.744c0.049,0.271,0.073,0.544,0.073,0.815
			c0,0.583-0.013,1.145-0.037,1.684S32.706,8.964,32.706,9.46z M29.893,10.641c0.243,0,0.457-0.049,0.642-0.146
			c0.185-0.097,0.34-0.213,0.467-0.35c0.126-0.136,0.228-0.274,0.306-0.415s0.131-0.26,0.16-0.357v-1.53
			c-0.563,0-1.025,0.029-1.385,0.087c-0.359,0.059-0.641,0.151-0.845,0.277S28.893,8.49,28.814,8.68s-0.116,0.406-0.116,0.648
			c0,0.418,0.106,0.741,0.32,0.97S29.523,10.641,29.893,10.641z"/>
		<path fill="#6B622C" d="M38.848,11.369h-3.235v-0.364c0.32-0.155,0.641-0.272,0.962-0.351V1.429l-1.108-0.116V0.934
			c0.253-0.117,0.568-0.219,0.948-0.307c0.379-0.087,0.748-0.16,1.107-0.219h0.364v10.246c0.32,0.078,0.642,0.195,0.962,0.351
			V11.369z"/>
		<path fill="#6B622C" d="M44.039,11.369h-3.235v-0.364c0.32-0.155,0.641-0.272,0.962-0.351V1.429l-1.108-0.116V0.934
			c0.253-0.117,0.568-0.219,0.948-0.307c0.379-0.087,0.748-0.16,1.107-0.219h0.364v10.246c0.32,0.078,0.642,0.195,0.962,0.351
			V11.369z"/>
		<path fill="#6B622C" d="M58.162,11.369h-3.148v-0.364c0.233-0.127,0.524-0.243,0.875-0.351v-3.41c0-0.758-0.107-1.353-0.321-1.785
			s-0.603-0.648-1.166-0.648c-0.253,0-0.48,0.046-0.685,0.138c-0.204,0.093-0.389,0.212-0.554,0.357
			c-0.166,0.146-0.307,0.313-0.423,0.503c-0.117,0.189-0.204,0.386-0.263,0.59v4.256c0.155,0.039,0.304,0.083,0.444,0.132
			c0.142,0.049,0.279,0.121,0.416,0.219v0.364h-3.134v-0.364c0.301-0.155,0.622-0.272,0.962-0.351V1.429l-1.107-0.116V0.934
			c0.281-0.117,0.609-0.219,0.983-0.307c0.374-0.087,0.731-0.16,1.071-0.219h0.364v5.146h0.015c0.204-0.457,0.498-0.846,0.882-1.166
			c0.384-0.321,0.848-0.481,1.392-0.481c0.389,0,0.736,0.047,1.043,0.139c0.306,0.093,0.561,0.255,0.765,0.488
			s0.359,0.547,0.467,0.94c0.106,0.394,0.16,0.892,0.16,1.493v3.688c0.165,0.039,0.33,0.083,0.495,0.132s0.321,0.121,0.467,0.219
			V11.369z"/>
		<path fill="#6B622C" d="M65.181,9.46c0,0.214,0.005,0.398,0.015,0.554s0.02,0.32,0.029,0.495l1.006,0.146v0.307
			c-0.243,0.126-0.513,0.238-0.809,0.335c-0.297,0.097-0.581,0.17-0.853,0.219h-0.365c-0.097-0.224-0.155-0.469-0.175-0.736
			c-0.02-0.267-0.034-0.561-0.043-0.882h-0.073c-0.039,0.194-0.114,0.392-0.226,0.591c-0.112,0.199-0.258,0.377-0.438,0.532
			s-0.392,0.281-0.634,0.379c-0.243,0.097-0.521,0.146-0.831,0.146c-0.593,0-1.076-0.18-1.45-0.539s-0.562-0.831-0.562-1.414
			c0-0.447,0.09-0.813,0.27-1.101c0.18-0.286,0.445-0.513,0.795-0.678s0.782-0.284,1.297-0.357c0.515-0.072,1.112-0.128,1.793-0.167
			c0.039-0.418,0.051-0.795,0.036-1.13s-0.068-0.622-0.16-0.859c-0.093-0.238-0.229-0.423-0.408-0.555
			c-0.18-0.131-0.415-0.196-0.707-0.196c-0.136,0-0.289,0.007-0.459,0.021s-0.338,0.057-0.503,0.124l-0.685,1.749h-0.379
			c-0.098-0.291-0.183-0.593-0.255-0.903c-0.073-0.311-0.119-0.617-0.139-0.918c0.369-0.224,0.779-0.398,1.231-0.525
			c0.452-0.126,0.954-0.189,1.509-0.189c0.495,0,0.891,0.071,1.188,0.212c0.296,0.141,0.522,0.323,0.678,0.546
			c0.155,0.224,0.258,0.472,0.306,0.744c0.049,0.271,0.073,0.544,0.073,0.815c0,0.583-0.013,1.145-0.036,1.684
			C65.193,8.446,65.181,8.964,65.181,9.46z M62.368,10.641c0.243,0,0.456-0.049,0.642-0.146c0.185-0.097,0.34-0.213,0.466-0.35
			c0.126-0.136,0.229-0.274,0.307-0.415c0.077-0.141,0.131-0.26,0.16-0.357v-1.53c-0.563,0-1.025,0.029-1.385,0.087
			c-0.359,0.059-0.642,0.151-0.846,0.277S61.367,8.49,61.289,8.68c-0.077,0.189-0.116,0.406-0.116,0.648
			c0,0.418,0.106,0.741,0.32,0.97S61.999,10.641,62.368,10.641z"/>
		<path fill="#6B622C" d="M71.12,5.175c-0.106,0.058-0.24,0.177-0.4,0.356c-0.16,0.181-0.304,0.445-0.43,0.795v4.328
			c0.194,0.02,0.389,0.057,0.583,0.109c0.194,0.054,0.389,0.134,0.583,0.241v0.364h-3.44v-0.364c0.176-0.098,0.341-0.17,0.496-0.219
			s0.311-0.093,0.466-0.132V4.927l-0.962-0.116V4.432c0.312-0.137,0.632-0.246,0.962-0.328c0.331-0.083,0.646-0.148,0.948-0.197
			h0.364v1.545h0.058c0.088-0.194,0.212-0.389,0.372-0.583s0.345-0.369,0.554-0.524s0.438-0.274,0.686-0.357
			c0.247-0.082,0.502-0.109,0.765-0.08c0.068,0.127,0.129,0.265,0.183,0.416c0.053,0.15,0.104,0.309,0.152,0.474v0.379H71.12z"/>
		<path fill="#6B622C" d="M80.442,10.349c-0.078,0.165-0.199,0.32-0.364,0.467c-0.165,0.146-0.354,0.271-0.568,0.379
			c-0.214,0.106-0.447,0.191-0.699,0.255c-0.253,0.063-0.511,0.095-0.772,0.095c-0.574,0-1.079-0.09-1.517-0.27
			c-0.437-0.18-0.801-0.438-1.093-0.772c-0.291-0.336-0.513-0.736-0.663-1.203c-0.15-0.466-0.226-0.99-0.226-1.573
			c0-1.244,0.286-2.191,0.859-2.843c0.573-0.65,1.385-0.977,2.435-0.977c0.34,0,0.675,0.047,1.005,0.139
			c0.331,0.093,0.625,0.245,0.882,0.459c0.258,0.214,0.467,0.498,0.627,0.853c0.16,0.355,0.24,0.795,0.24,1.319
			c0,0.165-0.007,0.333-0.021,0.503s-0.041,0.353-0.08,0.547h-4.548c0,0.407,0.052,0.789,0.153,1.144
			c0.103,0.354,0.255,0.663,0.459,0.926s0.462,0.469,0.772,0.619c0.312,0.151,0.676,0.227,1.094,0.227
			c0.34,0,0.685-0.049,1.034-0.146c0.351-0.097,0.612-0.224,0.787-0.379L80.442,10.349z M77.775,4.548
			c-0.554,0-0.977,0.188-1.268,0.562c-0.292,0.374-0.467,1.032-0.525,1.975h3.207c0.009-0.088,0.017-0.173,0.021-0.255
			c0.005-0.083,0.008-0.163,0.008-0.241c0-0.621-0.117-1.117-0.351-1.486C78.636,4.732,78.271,4.548,77.775,4.548z"/>
		<path fill="#6B622C" d="M85.453,5.175c-0.107,0.058-0.24,0.177-0.401,0.356c-0.16,0.181-0.304,0.445-0.43,0.795v4.328
			c0.194,0.02,0.389,0.057,0.583,0.109c0.194,0.054,0.389,0.134,0.583,0.241v0.364h-3.439v-0.364c0.175-0.098,0.34-0.17,0.495-0.219
			s0.312-0.093,0.467-0.132V4.927l-0.962-0.116V4.432c0.311-0.137,0.632-0.246,0.962-0.328c0.33-0.083,0.646-0.148,0.947-0.197
			h0.364v1.545h0.059c0.087-0.194,0.211-0.389,0.371-0.583c0.161-0.194,0.346-0.369,0.555-0.524
			c0.208-0.155,0.437-0.274,0.685-0.357c0.248-0.082,0.503-0.109,0.766-0.08c0.067,0.127,0.128,0.265,0.182,0.416
			c0.054,0.15,0.104,0.309,0.153,0.474v0.379H85.453z"/>
		<path fill="#6B622C" d="M96.224,11.544l-2.842-6.733C93.1,4.713,92.843,4.597,92.609,4.46V4.081h3.061v0.364
			c-0.126,0.068-0.255,0.134-0.386,0.197c-0.132,0.063-0.279,0.119-0.445,0.168l1.685,4.387l0.291,0.903h0.028l0.218-0.918
			l1.554-4.372c-0.155-0.039-0.299-0.088-0.43-0.146c-0.132-0.058-0.255-0.126-0.372-0.204V4.081h2.478V4.46
			c-0.097,0.068-0.216,0.132-0.356,0.189c-0.142,0.059-0.299,0.112-0.474,0.161l-2.58,6.559L96.224,11.544z"/>
		<path fill="#6B622C" d="M105.141,11.369h-3.235v-0.364c0.146-0.078,0.296-0.144,0.451-0.197c0.155-0.053,0.326-0.104,0.511-0.153
			V4.927l-0.962-0.116V4.432c0.281-0.117,0.588-0.219,0.918-0.307c0.33-0.087,0.66-0.16,0.991-0.219h0.364v6.748
			c0.194,0.049,0.369,0.101,0.524,0.153c0.155,0.054,0.302,0.119,0.438,0.197V11.369z M102.59,1.604
			c0-0.263,0.085-0.471,0.255-0.627c0.17-0.155,0.396-0.232,0.678-0.232c0.282,0,0.506,0.077,0.671,0.232
			c0.165,0.156,0.248,0.364,0.248,0.627s-0.083,0.469-0.248,0.619c-0.165,0.151-0.389,0.227-0.671,0.227
			c-0.281,0-0.508-0.075-0.678-0.227C102.675,2.072,102.59,1.866,102.59,1.604z"/>
		<path fill="#6B622C" d="M119.264,11.369h-3.148v-0.364c0.233-0.127,0.524-0.243,0.875-0.351v-3.41
			c0-0.758-0.107-1.353-0.321-1.785s-0.603-0.648-1.166-0.648c-0.253,0-0.48,0.046-0.685,0.138
			c-0.204,0.093-0.389,0.212-0.554,0.357c-0.166,0.146-0.307,0.313-0.423,0.503c-0.117,0.189-0.204,0.386-0.263,0.59v4.256
			c0.155,0.039,0.304,0.083,0.444,0.132c0.142,0.049,0.279,0.121,0.416,0.219v0.364h-3.134v-0.364
			c0.301-0.155,0.622-0.272,0.962-0.351V1.429l-1.107-0.116V0.934c0.281-0.117,0.609-0.219,0.983-0.307
			c0.374-0.087,0.731-0.16,1.071-0.219h0.364v5.146h0.015c0.204-0.457,0.498-0.846,0.882-1.166c0.384-0.321,0.848-0.481,1.392-0.481
			c0.389,0,0.736,0.047,1.043,0.139c0.306,0.093,0.561,0.255,0.765,0.488s0.359,0.547,0.467,0.94c0.106,0.394,0.16,0.892,0.16,1.493
			v3.688c0.165,0.039,0.33,0.083,0.495,0.132s0.321,0.121,0.467,0.219V11.369z"/>
		<path fill="#6B622C" d="M126.282,9.46c0,0.214,0.005,0.398,0.015,0.554s0.02,0.32,0.029,0.495l1.006,0.146v0.307
			c-0.243,0.126-0.513,0.238-0.809,0.335c-0.297,0.097-0.581,0.17-0.853,0.219h-0.365c-0.097-0.224-0.155-0.469-0.175-0.736
			c-0.02-0.267-0.034-0.561-0.043-0.882h-0.073c-0.039,0.194-0.114,0.392-0.226,0.591c-0.112,0.199-0.258,0.377-0.438,0.532
			s-0.392,0.281-0.634,0.379c-0.243,0.097-0.521,0.146-0.831,0.146c-0.593,0-1.076-0.18-1.45-0.539s-0.562-0.831-0.562-1.414
			c0-0.447,0.09-0.813,0.27-1.101c0.18-0.286,0.445-0.513,0.795-0.678s0.782-0.284,1.297-0.357c0.515-0.072,1.112-0.128,1.793-0.167
			c0.039-0.418,0.051-0.795,0.036-1.13s-0.068-0.622-0.16-0.859c-0.093-0.238-0.229-0.423-0.408-0.555
			c-0.18-0.131-0.415-0.196-0.707-0.196c-0.136,0-0.289,0.007-0.459,0.021s-0.338,0.057-0.503,0.124l-0.685,1.749h-0.379
			c-0.098-0.291-0.183-0.593-0.255-0.903c-0.073-0.311-0.119-0.617-0.139-0.918c0.369-0.224,0.779-0.398,1.231-0.525
			c0.452-0.126,0.954-0.189,1.509-0.189c0.495,0,0.891,0.071,1.188,0.212c0.296,0.141,0.522,0.323,0.678,0.546
			c0.155,0.224,0.258,0.472,0.306,0.744c0.049,0.271,0.073,0.544,0.073,0.815c0,0.583-0.013,1.145-0.036,1.684
			C126.295,8.446,126.282,8.964,126.282,9.46z M123.47,10.641c0.243,0,0.456-0.049,0.642-0.146c0.185-0.097,0.34-0.213,0.466-0.35
			c0.126-0.136,0.229-0.274,0.307-0.415c0.077-0.141,0.131-0.26,0.16-0.357v-1.53c-0.563,0-1.025,0.029-1.385,0.087
			c-0.359,0.059-0.642,0.151-0.846,0.277s-0.345,0.284-0.423,0.474c-0.077,0.189-0.116,0.406-0.116,0.648
			c0,0.418,0.106,0.741,0.32,0.97S123.101,10.641,123.47,10.641z"/>
		<path fill="#6B622C" d="M132.222,5.175c-0.106,0.058-0.24,0.177-0.4,0.356c-0.16,0.181-0.304,0.445-0.43,0.795v4.328
			c0.194,0.02,0.389,0.057,0.583,0.109c0.194,0.054,0.389,0.134,0.583,0.241v0.364h-3.44v-0.364c0.176-0.098,0.341-0.17,0.496-0.219
			s0.311-0.093,0.466-0.132V4.927l-0.962-0.116V4.432c0.312-0.137,0.632-0.246,0.962-0.328c0.331-0.083,0.646-0.148,0.948-0.197
			h0.364v1.545h0.058c0.088-0.194,0.212-0.389,0.372-0.583s0.345-0.369,0.554-0.524s0.438-0.274,0.686-0.357
			c0.247-0.082,0.502-0.109,0.765-0.08c0.068,0.127,0.129,0.265,0.183,0.416c0.053,0.15,0.104,0.309,0.152,0.474v0.379H132.222z"/>
		<path fill="#6B622C" d="M147.934,11.369H144.8v-0.364c0.263-0.137,0.549-0.253,0.86-0.351V7.2c0-0.738-0.107-1.321-0.321-1.749
			c-0.214-0.427-0.603-0.641-1.166-0.641c-0.243,0-0.469,0.043-0.678,0.131c-0.209,0.087-0.394,0.206-0.554,0.357
			c-0.16,0.15-0.299,0.32-0.415,0.51c-0.117,0.189-0.209,0.386-0.277,0.59v4.256c0.301,0.059,0.593,0.176,0.875,0.351v0.364h-3.148
			v-0.364c0.243-0.127,0.563-0.243,0.962-0.351V4.927l-0.962-0.116V4.432c0.253-0.107,0.544-0.204,0.874-0.292
			c0.331-0.087,0.676-0.165,1.035-0.233h0.364v1.633h0.015c0.204-0.447,0.498-0.831,0.882-1.151
			c0.384-0.321,0.848-0.481,1.392-0.481c0.389,0,0.736,0.047,1.043,0.139c0.306,0.093,0.561,0.255,0.765,0.488
			s0.359,0.547,0.467,0.94c0.106,0.394,0.16,0.892,0.16,1.493v3.688c0.389,0.068,0.709,0.186,0.962,0.351V11.369z"/>
		<path fill="#6B622C" d="M155.267,10.349c-0.078,0.165-0.199,0.32-0.364,0.467c-0.166,0.146-0.355,0.271-0.568,0.379
			c-0.214,0.106-0.447,0.191-0.7,0.255c-0.253,0.063-0.51,0.095-0.772,0.095c-0.573,0-1.078-0.09-1.516-0.27
			s-0.802-0.438-1.093-0.772c-0.292-0.336-0.513-0.736-0.663-1.203c-0.151-0.466-0.227-0.99-0.227-1.573
			c0-1.244,0.287-2.191,0.86-2.843c0.573-0.65,1.385-0.977,2.434-0.977c0.34,0,0.676,0.047,1.006,0.139
			c0.33,0.093,0.624,0.245,0.882,0.459c0.257,0.214,0.467,0.498,0.627,0.853c0.16,0.355,0.24,0.795,0.24,1.319
			c0,0.165-0.008,0.333-0.021,0.503c-0.015,0.17-0.042,0.353-0.081,0.547h-4.547c0,0.407,0.051,0.789,0.153,1.144
			c0.102,0.354,0.255,0.663,0.459,0.926s0.461,0.469,0.772,0.619c0.311,0.151,0.675,0.227,1.093,0.227
			c0.34,0,0.686-0.049,1.035-0.146c0.35-0.097,0.612-0.224,0.787-0.379L155.267,10.349z M152.599,4.548
			c-0.554,0-0.976,0.188-1.268,0.562c-0.291,0.374-0.467,1.032-0.524,1.975h3.206c0.01-0.088,0.017-0.173,0.022-0.255
			c0.004-0.083,0.007-0.163,0.007-0.241c0-0.621-0.116-1.117-0.35-1.486S153.095,4.548,152.599,4.548z"/>
		<path fill="#6B622C" d="M161.013,9.707c0-0.271-0.085-0.503-0.255-0.692s-0.387-0.366-0.648-0.531
			c-0.263-0.165-0.542-0.326-0.838-0.481c-0.297-0.155-0.576-0.337-0.839-0.547c-0.262-0.208-0.479-0.449-0.648-0.721
			c-0.17-0.272-0.255-0.607-0.255-1.006c0-0.263,0.061-0.505,0.183-0.729c0.121-0.224,0.284-0.416,0.488-0.576
			s0.441-0.286,0.714-0.379c0.271-0.092,0.563-0.139,0.874-0.139c0.525,0,0.955,0.029,1.29,0.088s0.658,0.141,0.97,0.248
			c-0.039,0.311-0.085,0.624-0.139,0.939c-0.054,0.316-0.129,0.64-0.226,0.97h-0.365l-0.554-1.487
			c-0.116-0.048-0.247-0.08-0.394-0.095c-0.146-0.015-0.296-0.021-0.451-0.021c-0.175,0-0.328,0.031-0.459,0.095
			c-0.132,0.063-0.243,0.144-0.336,0.24c-0.092,0.098-0.162,0.209-0.211,0.335c-0.049,0.127-0.073,0.253-0.073,0.38
			c0,0.262,0.085,0.488,0.255,0.678s0.387,0.364,0.649,0.524c0.262,0.16,0.541,0.318,0.838,0.474
			c0.296,0.155,0.575,0.33,0.838,0.524s0.479,0.421,0.648,0.678c0.17,0.258,0.255,0.566,0.255,0.926c0,0.33-0.07,0.627-0.211,0.889
			c-0.141,0.263-0.335,0.486-0.583,0.671s-0.534,0.328-0.86,0.43c-0.325,0.103-0.673,0.153-1.042,0.153
			c-0.418,0-0.802-0.036-1.151-0.109s-0.714-0.178-1.093-0.313c0.02-0.35,0.063-0.688,0.131-1.013s0.155-0.639,0.263-0.94h0.364
			l0.642,1.589c0.106,0.078,0.235,0.121,0.386,0.131s0.289,0.015,0.415,0.015c0.428,0,0.772-0.116,1.035-0.35
			S161.013,10.038,161.013,9.707z"/>
		<path fill="#6B622C" d="M164.031,4.448c0.369-0.241,0.758-0.412,1.166-0.513V2.696c0.126-0.106,0.274-0.201,0.444-0.284
			c0.17-0.082,0.338-0.162,0.503-0.24h0.364v1.909h2.187v0.758h-2.187v4.206c0,0.58,0.093,0.991,0.277,1.232
			c0.185,0.242,0.461,0.363,0.831,0.363c0.175,0,0.394-0.013,0.655-0.037c0.263-0.024,0.486-0.07,0.671-0.139l0.102,0.219
			c-0.078,0.088-0.187,0.181-0.328,0.277c-0.141,0.097-0.301,0.189-0.48,0.276c-0.18,0.088-0.377,0.161-0.591,0.219
			c-0.214,0.059-0.432,0.088-0.655,0.088c-0.583,0-1.027-0.165-1.334-0.493c-0.306-0.329-0.459-0.861-0.459-1.597V4.839h-1.166
			V4.448z"/>
		<path fill="#6B622C" d="M176.337,10.349c-0.078,0.165-0.199,0.32-0.364,0.467c-0.165,0.146-0.354,0.271-0.568,0.379
			c-0.214,0.106-0.447,0.191-0.699,0.255c-0.253,0.063-0.511,0.095-0.772,0.095c-0.574,0-1.079-0.09-1.517-0.27
			c-0.437-0.18-0.801-0.438-1.093-0.772c-0.291-0.336-0.513-0.736-0.663-1.203c-0.15-0.466-0.226-0.99-0.226-1.573
			c0-1.244,0.286-2.191,0.859-2.843c0.573-0.65,1.385-0.977,2.435-0.977c0.34,0,0.675,0.047,1.005,0.139
			c0.331,0.093,0.625,0.245,0.882,0.459c0.258,0.214,0.467,0.498,0.627,0.853c0.16,0.355,0.24,0.795,0.24,1.319
			c0,0.165-0.007,0.333-0.021,0.503s-0.041,0.353-0.08,0.547h-4.548c0,0.407,0.052,0.789,0.153,1.144
			c0.103,0.354,0.255,0.663,0.459,0.926s0.462,0.469,0.772,0.619c0.312,0.151,0.676,0.227,1.094,0.227
			c0.34,0,0.685-0.049,1.034-0.146c0.351-0.097,0.612-0.224,0.787-0.379L176.337,10.349z M173.67,4.548
			c-0.554,0-0.977,0.188-1.268,0.562c-0.292,0.374-0.467,1.032-0.525,1.975h3.207c0.009-0.088,0.017-0.173,0.021-0.255
			c0.005-0.083,0.008-0.163,0.008-0.241c0-0.621-0.117-1.117-0.351-1.486C174.53,4.732,174.165,4.548,173.67,4.548z"/>
		<path fill="#6B622C" d="M190.416,11.369h-3.119v-0.364c0.097-0.059,0.216-0.119,0.357-0.183c0.141-0.063,0.309-0.119,0.503-0.168
			V7.288c0-0.389-0.018-0.738-0.052-1.05c-0.034-0.311-0.097-0.57-0.189-0.779c-0.092-0.209-0.226-0.369-0.4-0.481
			c-0.175-0.111-0.403-0.167-0.685-0.167c-0.214,0-0.411,0.043-0.591,0.131c-0.18,0.087-0.34,0.204-0.48,0.35
			c-0.142,0.146-0.263,0.312-0.365,0.496c-0.102,0.185-0.182,0.379-0.24,0.583v4.284c0.155,0.049,0.304,0.101,0.444,0.153
			c0.142,0.054,0.279,0.119,0.416,0.197v0.364h-3.134v-0.364c0.136-0.068,0.286-0.132,0.452-0.189
			c0.165-0.059,0.335-0.112,0.51-0.161V4.927l-0.962-0.116V4.432c0.311-0.137,0.629-0.246,0.954-0.328
			c0.326-0.083,0.645-0.148,0.955-0.197h0.364v1.647h0.015c0.155-0.457,0.42-0.846,0.795-1.166c0.373-0.321,0.838-0.481,1.392-0.481
			c0.233,0,0.456,0.024,0.67,0.073s0.413,0.139,0.598,0.27s0.34,0.313,0.467,0.547c0.126,0.232,0.219,0.534,0.276,0.903
			c0.176-0.534,0.457-0.967,0.846-1.297s0.875-0.496,1.458-0.496c0.359,0,0.672,0.047,0.939,0.139
			c0.268,0.093,0.488,0.255,0.663,0.488s0.304,0.549,0.387,0.947c0.082,0.398,0.124,0.903,0.124,1.516v3.658
			c0.33,0.059,0.65,0.176,0.962,0.351v0.364h-3.134v-0.364c0.291-0.155,0.578-0.272,0.859-0.351V7.025
			c0-0.35-0.017-0.66-0.051-0.933c-0.034-0.271-0.1-0.503-0.196-0.692c-0.098-0.189-0.233-0.335-0.408-0.438
			c-0.175-0.102-0.408-0.152-0.7-0.152c-0.466,0-0.828,0.16-1.085,0.48c-0.258,0.32-0.445,0.729-0.562,1.225v4.139
			c0.34,0.098,0.656,0.214,0.947,0.351V11.369z"/>
		<path fill="#6B622C" d="M201.764,9.46c0,0.214,0.005,0.398,0.015,0.554s0.02,0.32,0.029,0.495l1.006,0.146v0.307
			c-0.243,0.126-0.513,0.238-0.809,0.335c-0.297,0.097-0.581,0.17-0.853,0.219h-0.365c-0.097-0.224-0.155-0.469-0.175-0.736
			c-0.02-0.267-0.034-0.561-0.043-0.882h-0.073c-0.039,0.194-0.114,0.392-0.226,0.591c-0.112,0.199-0.258,0.377-0.438,0.532
			s-0.392,0.281-0.634,0.379c-0.243,0.097-0.521,0.146-0.831,0.146c-0.593,0-1.076-0.18-1.45-0.539s-0.562-0.831-0.562-1.414
			c0-0.447,0.09-0.813,0.27-1.101c0.18-0.286,0.445-0.513,0.795-0.678s0.782-0.284,1.297-0.357c0.515-0.072,1.112-0.128,1.793-0.167
			c0.039-0.418,0.051-0.795,0.036-1.13s-0.068-0.622-0.16-0.859c-0.093-0.238-0.229-0.423-0.408-0.555
			c-0.18-0.131-0.415-0.196-0.707-0.196c-0.136,0-0.289,0.007-0.459,0.021s-0.338,0.057-0.503,0.124l-0.685,1.749h-0.379
			c-0.098-0.291-0.183-0.593-0.255-0.903c-0.073-0.311-0.119-0.617-0.139-0.918c0.369-0.224,0.779-0.398,1.231-0.525
			c0.452-0.126,0.954-0.189,1.509-0.189c0.495,0,0.891,0.071,1.188,0.212c0.296,0.141,0.522,0.323,0.678,0.546
			c0.155,0.224,0.258,0.472,0.306,0.744c0.049,0.271,0.073,0.544,0.073,0.815c0,0.583-0.013,1.145-0.036,1.684
			C201.776,8.446,201.764,8.964,201.764,9.46z M198.951,10.641c0.243,0,0.456-0.049,0.642-0.146c0.185-0.097,0.34-0.213,0.466-0.35
			c0.126-0.136,0.229-0.274,0.307-0.415c0.077-0.141,0.131-0.26,0.16-0.357v-1.53c-0.563,0-1.025,0.029-1.385,0.087
			c-0.359,0.059-0.642,0.151-0.846,0.277s-0.345,0.284-0.423,0.474c-0.077,0.189-0.116,0.406-0.116,0.648
			c0,0.418,0.106,0.741,0.32,0.97S198.582,10.641,198.951,10.641z M197.872,1.414c0-0.398,0.138-0.733,0.414-1.006
			C198.562,0.137,198.906,0,199.322,0c0.377,0,0.698,0.122,0.965,0.365c0.266,0.242,0.398,0.578,0.398,1.005
			c0,0.204-0.039,0.389-0.116,0.554c-0.077,0.166-0.179,0.307-0.305,0.423c-0.125,0.117-0.272,0.209-0.442,0.277
			c-0.169,0.068-0.34,0.102-0.515,0.102c-0.435,0-0.782-0.116-1.044-0.35C198.003,2.143,197.872,1.822,197.872,1.414z
			 M198.631,1.385c0,0.253,0.065,0.44,0.196,0.562s0.279,0.182,0.444,0.182c0.194,0,0.353-0.056,0.474-0.167
			c0.122-0.111,0.183-0.289,0.183-0.532c0-0.263-0.059-0.467-0.175-0.612c-0.117-0.146-0.272-0.219-0.467-0.219
			c-0.233,0-0.4,0.073-0.503,0.219C198.682,0.962,198.631,1.151,198.631,1.385z"/>
		<path fill="#6B622C" d="M212.557,11.369h-3.134v-0.364c0.263-0.137,0.549-0.253,0.86-0.351V7.2c0-0.738-0.107-1.321-0.321-1.749
			c-0.214-0.427-0.603-0.641-1.166-0.641c-0.243,0-0.469,0.043-0.678,0.131c-0.209,0.087-0.394,0.206-0.554,0.357
			c-0.16,0.15-0.299,0.32-0.415,0.51c-0.117,0.189-0.209,0.386-0.277,0.59v4.256c0.301,0.059,0.593,0.176,0.875,0.351v0.364h-3.148
			v-0.364c0.243-0.127,0.563-0.243,0.962-0.351V4.927l-0.962-0.116V4.432c0.253-0.107,0.544-0.204,0.874-0.292
			c0.331-0.087,0.676-0.165,1.035-0.233h0.364v1.633h0.015c0.204-0.447,0.498-0.831,0.882-1.151
			c0.384-0.321,0.848-0.481,1.392-0.481c0.389,0,0.736,0.047,1.043,0.139c0.306,0.093,0.561,0.255,0.765,0.488
			s0.359,0.547,0.467,0.94c0.106,0.394,0.16,0.892,0.16,1.493v3.688c0.389,0.068,0.709,0.186,0.962,0.351V11.369z"/>
		<path fill="#6B622C" d="M219.89,10.349c-0.078,0.165-0.199,0.32-0.364,0.467c-0.166,0.146-0.355,0.271-0.568,0.379
			c-0.214,0.106-0.447,0.191-0.7,0.255c-0.253,0.063-0.51,0.095-0.772,0.095c-0.573,0-1.078-0.09-1.516-0.27
			s-0.802-0.438-1.093-0.772c-0.292-0.336-0.513-0.736-0.663-1.203c-0.151-0.466-0.227-0.99-0.227-1.573
			c0-1.244,0.287-2.191,0.86-2.843c0.573-0.65,1.385-0.977,2.434-0.977c0.34,0,0.676,0.047,1.006,0.139
			c0.33,0.093,0.624,0.245,0.882,0.459c0.257,0.214,0.467,0.498,0.627,0.853c0.16,0.355,0.24,0.795,0.24,1.319
			c0,0.165-0.008,0.333-0.021,0.503c-0.015,0.17-0.042,0.353-0.081,0.547h-4.547c0,0.407,0.051,0.789,0.153,1.144
			c0.102,0.354,0.255,0.663,0.459,0.926s0.461,0.469,0.772,0.619c0.311,0.151,0.675,0.227,1.093,0.227
			c0.34,0,0.686-0.049,1.035-0.146c0.35-0.097,0.612-0.224,0.787-0.379L219.89,10.349z M217.222,4.548
			c-0.554,0-0.976,0.188-1.268,0.562c-0.291,0.374-0.467,1.032-0.524,1.975h3.206c0.01-0.088,0.017-0.173,0.022-0.255
			c0.004-0.083,0.007-0.163,0.007-0.241c0-0.621-0.116-1.117-0.35-1.486S217.718,4.548,217.222,4.548z"/>
		<path fill="#6B622C" d="M226.885,9.926c-0.049,0.214-0.131,0.418-0.248,0.612c-0.116,0.194-0.26,0.367-0.43,0.518
			s-0.364,0.27-0.583,0.357c-0.219,0.087-0.454,0.131-0.707,0.131c-0.962,0-1.681-0.307-2.157-0.918
			c-0.476-0.612-0.714-1.564-0.714-2.857c0-1.243,0.304-2.19,0.911-2.842c0.607-0.65,1.426-0.977,2.456-0.977
			c0.359,0,0.641,0.018,0.845,0.051c0.204,0.034,0.428,0.095,0.671,0.183V1.429l-1.107-0.116V0.934
			c0.281-0.117,0.609-0.219,0.983-0.307c0.374-0.087,0.731-0.16,1.071-0.219h0.364v10.13l0.962,0.116v0.307
			c-0.281,0.136-0.573,0.253-0.874,0.35c-0.302,0.097-0.598,0.165-0.89,0.204h-0.364l-0.131-1.589H226.885z M225.209,10.641
			c0.476,0,0.854-0.151,1.137-0.452c0.281-0.301,0.476-0.709,0.583-1.225v-4.11c-0.165-0.097-0.359-0.165-0.583-0.204
			c-0.224-0.038-0.51-0.058-0.86-0.058c-0.66,0-1.166,0.289-1.516,0.867s-0.524,1.348-0.524,2.31c0,0.398,0.034,0.771,0.102,1.115
			c0.068,0.345,0.176,0.648,0.321,0.911s0.328,0.469,0.546,0.619C224.633,10.565,224.897,10.641,225.209,10.641z"/>
	</g>
	<g>
		<path fill="#682733" d="M238.061,107.165h3.147v0.424c-0.408,0.271-0.807,0.466-1.194,0.582v9.372h-0.831l-5.291-8.03
			l-0.568-1.137h-0.044l0.132,1.137v6.923c0.397,0.106,0.772,0.276,1.122,0.51v0.423h-3.148v-0.423
			c0.175-0.106,0.362-0.201,0.562-0.284c0.198-0.082,0.41-0.158,0.634-0.226v-8.352c-0.194-0.077-0.387-0.161-0.576-0.248
			s-0.366-0.175-0.531-0.263v-0.408h2.463l4.591,6.924l0.671,1.254h0.058l-0.072-1.254v-5.918c-0.204-0.087-0.401-0.18-0.591-0.276
			s-0.366-0.199-0.531-0.306V107.165z"/>
		<path fill="#682733" d="M242.978,110.81c-0.146-0.039-0.279-0.088-0.4-0.146c-0.122-0.058-0.245-0.125-0.372-0.203v-0.379h3.061
			v0.363c-0.204,0.137-0.48,0.258-0.83,0.365l1.853,4.314l0.275,0.903h0.028l0.219-0.919l1.385-4.299
			c-0.291-0.059-0.559-0.176-0.802-0.35v-0.379h2.492v0.379c-0.204,0.136-0.48,0.252-0.83,0.35l-2.274,6.559
			c-0.232,0.621-0.454,1.125-0.663,1.508c-0.209,0.385-0.418,0.688-0.626,0.912c-0.209,0.223-0.423,0.386-0.642,0.488
			c-0.219,0.102-0.454,0.177-0.707,0.226c-0.107-0.185-0.202-0.389-0.284-0.612c-0.083-0.224-0.153-0.438-0.211-0.641l0.189-0.351
			h1.516c0.059-0.077,0.109-0.153,0.153-0.226c0.043-0.073,0.089-0.163,0.138-0.27c0.049-0.107,0.103-0.243,0.161-0.408
			c0.058-0.166,0.126-0.375,0.203-0.627L242.978,110.81z"/>
		<path fill="#682733" d="M256.881,116.349c-0.078,0.164-0.199,0.32-0.364,0.466c-0.166,0.146-0.355,0.272-0.568,0.379
			c-0.214,0.106-0.447,0.192-0.7,0.255s-0.51,0.095-0.772,0.095c-0.573,0-1.078-0.09-1.516-0.27s-0.802-0.438-1.093-0.772
			c-0.292-0.336-0.513-0.736-0.663-1.203c-0.151-0.466-0.227-0.99-0.227-1.573c0-1.243,0.287-2.191,0.86-2.843
			c0.573-0.65,1.385-0.977,2.434-0.977c0.34,0,0.676,0.047,1.006,0.139c0.33,0.093,0.624,0.246,0.882,0.459
			c0.257,0.215,0.467,0.498,0.627,0.854c0.16,0.354,0.24,0.794,0.24,1.318c0,0.166-0.008,0.333-0.021,0.503
			c-0.015,0.171-0.042,0.353-0.081,0.547h-4.547c0,0.407,0.051,0.79,0.153,1.144c0.102,0.355,0.255,0.664,0.459,0.926
			c0.204,0.263,0.461,0.469,0.772,0.619c0.311,0.151,0.675,0.227,1.093,0.227c0.34,0,0.686-0.049,1.035-0.146
			c0.35-0.097,0.612-0.223,0.787-0.379L256.881,116.349z M254.213,110.547c-0.554,0-0.976,0.188-1.268,0.562
			c-0.291,0.374-0.467,1.032-0.524,1.975h3.206c0.01-0.088,0.017-0.172,0.022-0.255c0.004-0.083,0.007-0.163,0.007-0.241
			c0-0.621-0.116-1.117-0.35-1.486S254.709,110.547,254.213,110.547z"/>
		<path fill="#682733" d="M271.28,117.368h-3.147v-0.364c0.232-0.126,0.524-0.243,0.874-0.351v-3.41c0-0.758-0.106-1.353-0.32-1.785
			c-0.214-0.432-0.603-0.648-1.166-0.648c-0.253,0-0.481,0.046-0.686,0.139c-0.204,0.092-0.389,0.211-0.554,0.357
			c-0.165,0.145-0.306,0.313-0.423,0.502c-0.116,0.189-0.204,0.387-0.262,0.59v4.256c0.155,0.039,0.304,0.084,0.444,0.132
			c0.141,0.049,0.279,0.122,0.415,0.219v0.364h-3.134v-0.364c0.302-0.155,0.622-0.272,0.962-0.351v-9.225l-1.107-0.117v-0.379
			c0.282-0.117,0.609-0.219,0.984-0.307c0.374-0.087,0.73-0.16,1.071-0.219h0.364v5.146h0.015c0.204-0.456,0.497-0.845,0.882-1.166
			c0.384-0.321,0.848-0.481,1.392-0.481c0.389,0,0.736,0.047,1.042,0.139c0.306,0.093,0.562,0.256,0.766,0.488
			c0.204,0.233,0.359,0.547,0.466,0.94c0.107,0.394,0.16,0.892,0.16,1.493v3.688c0.165,0.039,0.33,0.084,0.496,0.132
			c0.165,0.049,0.32,0.122,0.466,0.219V117.368z"/>
		<path fill="#682733" d="M278.3,115.459c0,0.214,0.005,0.398,0.015,0.554c0.01,0.156,0.02,0.32,0.029,0.496l1.006,0.145v0.307
			c-0.243,0.127-0.513,0.238-0.81,0.336c-0.296,0.096-0.58,0.17-0.853,0.218h-0.364c-0.098-0.224-0.155-0.468-0.175-0.735
			s-0.034-0.562-0.044-0.883h-0.073c-0.038,0.195-0.114,0.392-0.226,0.591s-0.258,0.377-0.438,0.532s-0.391,0.281-0.634,0.379
			c-0.243,0.097-0.52,0.146-0.831,0.146c-0.593,0-1.076-0.18-1.45-0.539s-0.561-0.831-0.561-1.414c0-0.446,0.09-0.813,0.27-1.101
			c0.18-0.286,0.444-0.512,0.794-0.678c0.351-0.164,0.782-0.283,1.298-0.357c0.515-0.072,1.112-0.128,1.792-0.167
			c0.039-0.417,0.052-0.794,0.037-1.13c-0.015-0.335-0.068-0.621-0.16-0.859c-0.093-0.238-0.229-0.423-0.408-0.555
			c-0.181-0.131-0.416-0.196-0.707-0.196c-0.137,0-0.289,0.007-0.459,0.022c-0.171,0.014-0.338,0.056-0.503,0.123l-0.686,1.75
			h-0.379c-0.097-0.292-0.182-0.594-0.255-0.904s-0.119-0.617-0.139-0.918c0.369-0.224,0.78-0.398,1.231-0.525
			c0.452-0.125,0.955-0.189,1.509-0.189c0.496,0,0.892,0.071,1.188,0.212c0.297,0.142,0.522,0.323,0.678,0.546
			c0.156,0.225,0.258,0.473,0.307,0.744s0.073,0.544,0.073,0.816c0,0.582-0.013,1.144-0.037,1.684
			C278.312,114.446,278.3,114.964,278.3,115.459z M275.486,116.64c0.243,0,0.457-0.049,0.642-0.146
			c0.185-0.097,0.34-0.213,0.467-0.35c0.126-0.136,0.228-0.273,0.306-0.415c0.078-0.141,0.131-0.26,0.16-0.356v-1.531
			c-0.563,0-1.025,0.029-1.385,0.088s-0.641,0.15-0.845,0.277c-0.204,0.125-0.345,0.283-0.423,0.473s-0.116,0.406-0.116,0.648
			c0,0.418,0.106,0.742,0.32,0.97C274.826,116.525,275.117,116.64,275.486,116.64z"/>
		<path fill="#682733" d="M284.238,111.174c-0.106,0.058-0.24,0.177-0.4,0.356c-0.16,0.181-0.304,0.445-0.43,0.795v4.328
			c0.194,0.02,0.389,0.057,0.583,0.109c0.194,0.055,0.389,0.135,0.583,0.241v0.364h-3.44v-0.364c0.176-0.097,0.341-0.17,0.496-0.219
			c0.155-0.048,0.311-0.093,0.466-0.132v-5.728l-0.962-0.116v-0.379c0.312-0.137,0.632-0.246,0.962-0.328
			c0.331-0.082,0.646-0.148,0.948-0.197h0.364v1.545h0.058c0.088-0.193,0.212-0.389,0.372-0.582c0.16-0.195,0.345-0.369,0.554-0.525
			c0.209-0.155,0.438-0.274,0.686-0.357c0.247-0.082,0.502-0.109,0.765-0.08c0.068,0.127,0.129,0.266,0.183,0.416
			c0.053,0.15,0.104,0.309,0.152,0.474v0.379H284.238z"/>
		<path fill="#682733" d="M293.561,116.349c-0.078,0.164-0.199,0.32-0.364,0.466s-0.354,0.272-0.568,0.379s-0.447,0.192-0.699,0.255
			c-0.253,0.063-0.511,0.095-0.772,0.095c-0.574,0-1.079-0.09-1.517-0.27c-0.437-0.18-0.801-0.438-1.093-0.772
			c-0.291-0.336-0.513-0.736-0.663-1.203c-0.15-0.466-0.226-0.99-0.226-1.573c0-1.243,0.286-2.191,0.859-2.843
			c0.573-0.65,1.385-0.977,2.435-0.977c0.34,0,0.675,0.047,1.005,0.139c0.331,0.093,0.625,0.246,0.882,0.459
			c0.258,0.215,0.467,0.498,0.627,0.854c0.16,0.354,0.24,0.794,0.24,1.318c0,0.166-0.007,0.333-0.021,0.503
			c-0.015,0.171-0.041,0.353-0.08,0.547h-4.548c0,0.407,0.052,0.79,0.153,1.144c0.103,0.355,0.255,0.664,0.459,0.926
			c0.204,0.263,0.462,0.469,0.772,0.619c0.312,0.151,0.676,0.227,1.094,0.227c0.34,0,0.685-0.049,1.034-0.146
			c0.351-0.097,0.612-0.223,0.787-0.379L293.561,116.349z M290.894,110.547c-0.554,0-0.977,0.188-1.268,0.562
			c-0.292,0.374-0.467,1.032-0.525,1.975h3.207c0.009-0.088,0.017-0.172,0.021-0.255s0.008-0.163,0.008-0.241
			c0-0.621-0.117-1.117-0.351-1.486C291.754,110.731,291.389,110.547,290.894,110.547z"/>
		<path fill="#682733" d="M298.571,111.174c-0.106,0.058-0.24,0.177-0.4,0.356c-0.16,0.181-0.304,0.445-0.43,0.795v4.328
			c0.194,0.02,0.389,0.057,0.583,0.109c0.194,0.055,0.389,0.135,0.583,0.241v0.364h-3.44v-0.364c0.176-0.097,0.341-0.17,0.496-0.219
			c0.155-0.048,0.311-0.093,0.466-0.132v-5.728l-0.962-0.116v-0.379c0.312-0.137,0.632-0.246,0.962-0.328
			c0.331-0.082,0.646-0.148,0.948-0.197h0.364v1.545h0.058c0.088-0.193,0.212-0.389,0.372-0.582c0.16-0.195,0.345-0.369,0.554-0.525
			c0.209-0.155,0.438-0.274,0.686-0.357c0.247-0.082,0.502-0.109,0.765-0.08c0.068,0.127,0.129,0.266,0.183,0.416
			c0.053,0.15,0.104,0.309,0.152,0.474v0.379H298.571z"/>
	</g>
	<g>
		<g>
			<rect x="24.75" y="16.048" fill="#6B622C" width="1" height="11.006"/>
		</g>
		<g>
			<g>
				<polygon fill="#6B622C" points="23.914,24.571 24.309,24.428 25.25,27.013 26.19,24.428 26.585,24.571 25.25,28.241 				"/>
			</g>
		</g>
	</g>
	<g>
		<g>
			<rect x="120.5" y="86.722" fill="#294E57" width="1" height="18.378"/>
		</g>
		<g>
			<g>
				<polygon fill="#294E57" points="122.336,89.204 121.94,89.349 121,86.763 120.059,89.349 119.664,89.204 121,85.535 				"/>
			</g>
		</g>
	</g>
	<g>
		<g>
			<rect x="253.998" y="86.722" fill="#682733" width="1" height="18.378"/>
		</g>
		<g>
			<g>
				<polygon fill="#682733" points="255.834,89.204 255.438,89.349 254.498,86.763 253.557,89.349 253.162,89.204 254.498,85.535 
									"/>
			</g>
		</g>
	</g>
	<g>
		<path d="M10.026,50.183c-0.41-0.109-0.786-0.246-1.127-0.41C8.558,49.609,8.21,49.419,7.854,49.2v-1.065h8.604v1.024
			c-0.574,0.383-1.352,0.724-2.335,1.024l5.209,12.127l0.773,2.54h0.081l0.615-2.581l3.892-12.086
			c-0.819-0.164-1.571-0.492-2.253-0.983v-1.065h7.006V49.2c-0.574,0.383-1.353,0.71-2.335,0.983L20.72,68.62
			c-0.656,1.747-1.277,3.16-1.864,4.24c-0.588,1.078-1.175,1.932-1.762,2.561c-0.588,0.628-1.188,1.086-1.803,1.372
			c-0.615,0.287-1.277,0.498-1.987,0.636c-0.301-0.52-0.567-1.094-0.799-1.721c-0.232-0.629-0.43-1.229-0.594-1.803l0.532-0.984
			h4.261c0.164-0.219,0.308-0.43,0.431-0.635c0.123-0.205,0.252-0.457,0.389-0.758s0.287-0.683,0.451-1.146
			c0.164-0.465,0.354-1.053,0.573-1.762L10.026,50.183z"/>
		<path d="M38.34,70.319h4.61v0.621c-0.303,0.128-0.602,0.239-0.896,0.335c-0.295,0.096-0.602,0.175-0.92,0.239
			c-0.239,0.318-0.514,0.66-0.824,1.026s-0.625,0.733-0.943,1.099c-0.318,0.367-0.625,0.709-0.919,1.027
			c-0.295,0.318-0.545,0.582-0.752,0.788c0.239,0.319,0.529,0.705,0.872,1.159c0.342,0.453,0.712,0.936,1.11,1.444
			c0.398,0.51,0.808,1.027,1.23,1.553c0.421,0.525,0.839,1.02,1.254,1.481l1.337,0.572v0.598h-2.961l-0.646-0.573
			c-0.844-1.051-1.544-1.986-2.102-2.807c-0.558-0.819-1.067-1.589-1.529-2.305l-0.789-0.239v4.754
			c0.526,0.095,1.043,0.286,1.553,0.572v0.598h-5.278v-0.598c0.525-0.254,1.051-0.445,1.576-0.572v-15.12l-1.815-0.19v-0.621
			c0.446-0.207,0.979-0.375,1.601-0.502s1.21-0.247,1.768-0.358h0.597v11.417h0.621c0.255-0.286,0.534-0.604,0.836-0.955
			c0.303-0.35,0.605-0.713,0.908-1.087c0.302-0.374,0.597-0.744,0.884-1.11c0.286-0.366,0.549-0.717,0.788-1.051
			c-0.398-0.111-0.788-0.303-1.17-0.574V70.319z"/>
		<path d="M59.002,50.224h18.437v2.13H59.002V50.224z M59.002,56.779h18.437v2.13H59.002V56.779z"/>
		<path d="M95.629,50.183c-0.41-0.109-0.786-0.246-1.127-0.41c-0.342-0.164-0.689-0.354-1.045-0.574v-1.065h8.604v1.024
			c-0.573,0.383-1.352,0.724-2.335,1.024l5.209,12.127l0.773,2.54h0.081l0.615-2.581l3.892-12.086
			c-0.819-0.164-1.571-0.492-2.253-0.983v-1.065h7.006V49.2c-0.574,0.383-1.353,0.71-2.336,0.983l-6.391,18.437
			c-0.656,1.747-1.277,3.16-1.864,4.24c-0.588,1.078-1.175,1.932-1.762,2.561c-0.588,0.628-1.188,1.086-1.803,1.372
			c-0.614,0.287-1.277,0.498-1.987,0.636c-0.301-0.52-0.567-1.094-0.799-1.721c-0.232-0.629-0.431-1.229-0.594-1.803l0.532-0.984
			h4.261c0.164-0.219,0.308-0.43,0.431-0.635s0.252-0.457,0.389-0.758s0.287-0.683,0.451-1.146c0.164-0.465,0.354-1.053,0.573-1.762
			L95.629,50.183z"/>
		<path d="M123.942,70.319h4.61v0.621c-0.303,0.128-0.602,0.239-0.896,0.335c-0.295,0.096-0.602,0.175-0.92,0.239
			c-0.238,0.318-0.514,0.66-0.824,1.026s-0.625,0.733-0.943,1.099c-0.318,0.367-0.625,0.709-0.92,1.027
			c-0.294,0.318-0.545,0.582-0.752,0.788c0.239,0.319,0.529,0.705,0.872,1.159c0.342,0.453,0.712,0.936,1.11,1.444
			c0.398,0.51,0.809,1.027,1.23,1.553s0.84,1.02,1.254,1.481l1.338,0.572v0.598h-2.962l-0.646-0.573
			c-0.844-1.051-1.545-1.986-2.102-2.807c-0.558-0.819-1.067-1.589-1.529-2.305l-0.788-0.239v4.754
			c0.525,0.095,1.043,0.286,1.553,0.572v0.598h-5.278v-0.598c0.525-0.254,1.051-0.445,1.576-0.572v-15.12l-1.815-0.19v-0.621
			c0.445-0.207,0.979-0.375,1.601-0.502s1.21-0.247,1.768-0.358h0.597v11.417h0.621c0.255-0.286,0.533-0.604,0.836-0.955
			c0.303-0.35,0.605-0.713,0.908-1.087c0.302-0.374,0.597-0.744,0.884-1.11c0.286-0.366,0.549-0.717,0.788-1.051
			c-0.398-0.111-0.788-0.303-1.171-0.574V70.319z"/>
		<path d="M130.438,74.811h6.735v1.48h-6.735V74.811z"/>
		<path d="M148.332,82.263h-6.975V81.57c0.398-0.175,0.801-0.331,1.206-0.466c0.406-0.135,0.816-0.251,1.23-0.347V69.03l0.096-1.409
			c-0.446,0.175-0.908,0.298-1.386,0.37c-0.478,0.071-0.971,0.1-1.48,0.084l-0.119-0.574c0.731-0.238,1.488-0.537,2.269-0.896
			s1.505-0.808,2.174-1.35h0.597v15.502c0.398,0.096,0.797,0.212,1.194,0.347c0.398,0.135,0.796,0.291,1.194,0.466V82.263z"/>
		<path d="M151.474,53.502h8.112v-8.604h2.131v8.604h8.111v2.13h-8.111v8.809h-2.131v-8.809h-8.112V53.502z"/>
		<path d="M187.813,54.28c0-4.917,0.819-8.617,2.458-11.103c1.639-2.485,3.988-3.728,7.047-3.728c3.305,0,5.722,1.223,7.252,3.667
			c1.529,2.445,2.294,6.166,2.294,11.165c0,4.916-0.826,8.617-2.479,11.103s-4.09,3.729-7.313,3.729
			c-1.667,0-3.087-0.335-4.262-1.004c-1.174-0.669-2.13-1.639-2.867-2.909c-0.737-1.27-1.277-2.819-1.618-4.649
			C187.983,58.719,187.813,56.629,187.813,54.28z M191.747,54.321c0,1.96,0.095,3.744,0.286,5.35
			c0.191,1.607,0.498,2.988,0.922,4.146c0.424,1.157,0.97,2.049,1.639,2.675s1.481,0.939,2.438,0.939
			c2.157,0,3.68-1.062,4.567-3.186s1.332-5.433,1.332-9.925c0-1.96-0.082-3.744-0.246-5.351s-0.465-2.981-0.901-4.125
			c-0.437-1.143-1.018-2.028-1.741-2.654s-1.632-0.94-2.725-0.94c-2.048,0-3.489,1.056-4.322,3.166
			C192.163,46.527,191.747,49.828,191.747,54.321z"/>
		<path d="M212.478,66.284c0-0.819,0.259-1.475,0.778-1.967c0.519-0.491,1.188-0.737,2.008-0.737c0.846,0,1.529,0.246,2.048,0.737
			c0.519,0.492,0.779,1.147,0.779,1.967c0,0.793-0.261,1.434-0.779,1.926s-1.202,0.737-2.048,0.737
			c-0.819,0-1.489-0.245-2.008-0.737C212.736,67.718,212.478,67.077,212.478,66.284z"/>
		<path d="M223.862,54.28c0-4.917,0.819-8.617,2.458-11.103c1.639-2.485,3.988-3.728,7.047-3.728c3.305,0,5.722,1.223,7.252,3.667
			c1.529,2.445,2.294,6.166,2.294,11.165c0,4.916-0.826,8.617-2.479,11.103s-4.09,3.729-7.313,3.729
			c-1.667,0-3.087-0.335-4.262-1.004c-1.174-0.669-2.13-1.639-2.867-2.909c-0.737-1.27-1.277-2.819-1.618-4.649
			C224.032,58.719,223.862,56.629,223.862,54.28z M227.796,54.321c0,1.96,0.095,3.744,0.286,5.35
			c0.191,1.607,0.498,2.988,0.922,4.146c0.424,1.157,0.97,2.049,1.639,2.675s1.481,0.939,2.438,0.939
			c2.157,0,3.68-1.062,4.567-3.186s1.332-5.433,1.332-9.925c0-1.96-0.082-3.744-0.246-5.351s-0.465-2.981-0.901-4.125
			c-0.437-1.143-1.018-2.028-1.741-2.654s-1.632-0.94-2.725-0.94c-2.048,0-3.489,1.056-4.322,3.166
			C228.212,46.527,227.796,49.828,227.796,54.321z"/>
		<path d="M263.218,37.688h1.024c-0.027,0.409-0.062,0.867-0.103,1.372c-0.041,0.506-0.103,1.011-0.185,1.516
			c-0.082,0.506-0.163,0.991-0.245,1.455s-0.179,0.847-0.287,1.147h-10.079l-0.982,7.907h2.663c1.365,0,2.614,0.184,3.748,0.553
			c1.134,0.368,2.104,0.915,2.909,1.639s1.434,1.604,1.885,2.643c0.45,1.038,0.676,2.227,0.676,3.564
			c0,1.584-0.273,2.978-0.819,4.179c-0.547,1.202-1.271,2.206-2.172,3.012s-1.925,1.413-3.072,1.823
			c-1.147,0.409-2.335,0.614-3.564,0.614c-0.547,0-1.134-0.048-1.762-0.144c-0.629-0.096-1.25-0.239-1.864-0.43
			c-0.614-0.191-1.195-0.416-1.741-0.677c-0.547-0.259-1.011-0.538-1.393-0.84l1.188-3.687h0.819
			c0.164,0.191,0.369,0.437,0.615,0.737c0.245,0.301,0.498,0.614,0.758,0.942c0.259,0.327,0.519,0.655,0.778,0.982
			c0.259,0.328,0.498,0.615,0.717,0.861c0.272,0.055,0.525,0.122,0.758,0.204s0.595,0.123,1.086,0.123
			c0.901,0,1.728-0.177,2.479-0.532s1.399-0.84,1.946-1.455c0.546-0.614,0.969-1.331,1.271-2.15c0.3-0.819,0.45-1.707,0.45-2.663
			c0-1.092-0.205-2.042-0.614-2.848c-0.41-0.805-0.97-1.461-1.68-1.967c-0.711-0.505-1.537-0.881-2.479-1.126
			c-0.941-0.246-1.933-0.354-2.97-0.328l-2.909,0.041l1.639-14.217h9.751L263.218,37.688z"/>
		<path d="M268.564,50.183c-0.41-0.109-0.786-0.246-1.127-0.41c-0.342-0.164-0.689-0.354-1.045-0.574v-1.065h8.604v1.024
			c-0.573,0.383-1.352,0.724-2.335,1.024l5.209,12.127l0.773,2.54h0.081l0.615-2.581l3.892-12.086
			c-0.819-0.164-1.571-0.492-2.253-0.983v-1.065h7.006V49.2c-0.574,0.383-1.353,0.71-2.336,0.983l-6.391,18.437
			c-0.656,1.747-1.277,3.16-1.864,4.24c-0.588,1.078-1.175,1.932-1.762,2.561c-0.588,0.628-1.188,1.086-1.803,1.372
			c-0.614,0.287-1.277,0.498-1.987,0.636c-0.301-0.52-0.567-1.094-0.799-1.721c-0.232-0.629-0.431-1.229-0.594-1.803l0.532-0.984
			h4.261c0.164-0.219,0.308-0.43,0.431-0.635s0.252-0.457,0.389-0.758s0.287-0.683,0.451-1.146c0.164-0.465,0.354-1.053,0.573-1.762
			L268.564,50.183z"/>
		<path d="M296.878,70.319h4.61v0.621c-0.303,0.128-0.602,0.239-0.896,0.335c-0.295,0.096-0.602,0.175-0.92,0.239
			c-0.238,0.318-0.514,0.66-0.824,1.026s-0.625,0.733-0.943,1.099c-0.318,0.367-0.625,0.709-0.92,1.027
			c-0.294,0.318-0.545,0.582-0.752,0.788c0.239,0.319,0.529,0.705,0.872,1.159c0.342,0.453,0.712,0.936,1.11,1.444
			c0.398,0.51,0.809,1.027,1.23,1.553s0.84,1.02,1.254,1.481l1.338,0.572v0.598h-2.962l-0.646-0.573
			c-0.844-1.051-1.545-1.986-2.102-2.807c-0.558-0.819-1.067-1.589-1.529-2.305l-0.788-0.239v4.754
			c0.525,0.095,1.043,0.286,1.553,0.572v0.598h-5.278v-0.598c0.525-0.254,1.051-0.445,1.576-0.572v-15.12l-1.815-0.19v-0.621
			c0.445-0.207,0.979-0.375,1.601-0.502s1.21-0.247,1.768-0.358h0.597v11.417h0.621c0.255-0.286,0.533-0.604,0.836-0.955
			c0.303-0.35,0.605-0.713,0.908-1.087c0.302-0.374,0.597-0.744,0.884-1.11c0.286-0.366,0.549-0.717,0.788-1.051
			c-0.398-0.111-0.788-0.303-1.171-0.574V70.319z"/>
		<path d="M303.373,74.811h6.735v1.48h-6.735V74.811z"/>
		<path d="M321.268,82.263h-6.975V81.57c0.397-0.175,0.8-0.331,1.206-0.466s0.815-0.251,1.23-0.347V69.03l0.095-1.409
			c-0.445,0.175-0.907,0.298-1.385,0.37c-0.478,0.071-0.972,0.1-1.481,0.084l-0.119-0.574c0.732-0.238,1.489-0.537,2.27-0.896
			c0.779-0.358,1.505-0.808,2.173-1.35h0.598v15.502c0.397,0.096,0.796,0.212,1.194,0.347c0.397,0.135,0.796,0.291,1.194,0.466
			V82.263z"/>
	</g>
</g>
</svg>
